<?xml version="1.0" encoding="UTF-8" standalone="no"?>
<svg
   xmlns:dc="http://purl.org/dc/elements/1.1/"
   xmlns:cc="http://creativecommons.org/ns#"
   xmlns:rdf="http://www.w3.org/1999/02/22-rdf-syntax-ns#"
   xmlns:svg="http://www.w3.org/2000/svg"
   xmlns="http://www.w3.org/2000/svg"
   xmlns:xlink="http://www.w3.org/1999/xlink"
   xmlns:sodipodi="http://sodipodi.sourceforge.net/DTD/sodipodi-0.dtd"
   xmlns:inkscape="http://www.inkscape.org/namespaces/inkscape"
   width="1920"
   height="1080"
   viewBox="0 0 508 285.75"
   version="1.1"
   id="svg8"
   inkscape:version="1.0.2 (e86c870879, 2021-01-15, custom)"
   sodipodi:docname="slide8.svg">
  <defs
     id="defs2">
    <marker
       style="overflow:visible"
       id="marker20297"
       refX="0"
       refY="0"
       orient="auto"
       inkscape:stockid="TriangleOutS"
       inkscape:isstock="true">
      <path
         transform="scale(0.2)"
         style="fill:#15616d;fill-opacity:1;fill-rule:evenodd;stroke:#15616d;stroke-width:1pt;stroke-opacity:1"
         d="M 5.77,0 -2.88,5 V -5 Z"
         id="path20295" />
    </marker>
    <marker
       style="overflow:visible"
       id="marker6320"
       refX="0"
       refY="0"
       orient="auto"
       inkscape:stockid="TriangleOutS"
       inkscape:isstock="true">
      <path
         transform="scale(0.2)"
         style="fill:#15616d;fill-opacity:1;fill-rule:evenodd;stroke:#15616d;stroke-width:1pt;stroke-opacity:1"
         d="M 5.77,0 -2.88,5 V -5 Z"
         id="path6318" />
    </marker>
    <marker
       style="overflow:visible"
       id="marker6310"
       refX="0"
       refY="0"
       orient="auto"
       inkscape:stockid="TriangleOutS"
       inkscape:isstock="true">
      <path
         transform="scale(0.2)"
         style="fill:#15616d;fill-opacity:1;fill-rule:evenodd;stroke:#15616d;stroke-width:1pt;stroke-opacity:1"
         d="M 5.77,0 -2.88,5 V -5 Z"
         id="path6308" />
    </marker>
    <marker
       style="overflow:visible"
       id="marker6290"
       refX="0"
       refY="0"
       orient="auto"
       inkscape:stockid="TriangleOutS"
       inkscape:isstock="true">
      <path
         transform="scale(0.2)"
         style="fill:#15616d;fill-opacity:1;fill-rule:evenodd;stroke:#15616d;stroke-width:1pt;stroke-opacity:1"
         d="M 5.77,0 -2.88,5 V -5 Z"
         id="path6288" />
    </marker>
    <marker
       style="overflow:visible"
       id="marker6280"
       refX="0"
       refY="0"
       orient="auto"
       inkscape:stockid="TriangleOutS"
       inkscape:isstock="true">
      <path
         transform="scale(0.2)"
         style="fill:#15616d;fill-opacity:1;fill-rule:evenodd;stroke:#15616d;stroke-width:1pt;stroke-opacity:1"
         d="M 5.77,0 -2.88,5 V -5 Z"
         id="path6278" />
    </marker>
    <marker
       style="overflow:visible"
       id="marker7099"
       refX="0"
       refY="0"
       orient="auto"
       inkscape:stockid="TriangleOutS"
       inkscape:isstock="true">
      <path
         transform="scale(0.2)"
         style="fill:#808080;fill-opacity:1;fill-rule:evenodd;stroke:#808080;stroke-width:1pt;stroke-opacity:1"
         d="M 5.77,0 -2.88,5 V -5 Z"
         id="path7097" />
    </marker>
    <rect
       x="351.11634"
       y="337.88033"
       width="200.61339"
       height="22.463528"
       id="rect24548" />
    <rect
       x="121.66698"
       y="17.233942"
       width="328.4335"
       height="111.52599"
       id="rect853" />
    <rect
       x="121.66698"
       y="17.233942"
       width="100.3084"
       height="28.132661"
       id="rect861" />
    <rect
       x="121.66698"
       y="17.233942"
       width="328.4335"
       height="111.52599"
       id="rect867" />
    <rect
       x="121.66698"
       y="17.233942"
       width="328.4335"
       height="111.52599"
       id="rect873" />
    <rect
       x="121.66698"
       y="17.233942"
       width="328.4335"
       height="111.52599"
       id="rect879" />
    <rect
       x="121.66698"
       y="17.233942"
       width="328.4335"
       height="111.52599"
       id="rect885" />
    <rect
       x="121.66698"
       y="17.233942"
       width="328.4335"
       height="111.52599"
       id="rect891" />
    <rect
       x="121.66698"
       y="17.233942"
       width="328.4335"
       height="111.52599"
       id="rect1004" />
    <rect
       x="121.66698"
       y="17.233942"
       width="328.4335"
       height="111.52599"
       id="rect1024" />
    <defs
       id="defs3">
      <rect
         height="692.97803"
         width="976.01599"
         y="3.0220001"
         x="3.984"
         id="SVGID_1_" />
    </defs>
    <clipPath
       id="SVGID_2_">
      <use
         id="use5"
         overflow="visible"
         xlink:href="#SVGID_1_"
         style="overflow:visible"
         x="0"
         y="0"
         width="100%"
         height="100%" />
    </clipPath>
    <rect
       height="692.97803"
       width="976.01599"
       y="3.0220001"
       x="3.984"
       id="rect1204" />
    <clipPath
       clipPathUnits="userSpaceOnUse"
       id="clipPath1107">
      <rect
         style="fill:none;fill-opacity:1;stroke:#ffff00;stroke-width:0.938579"
         id="rect1109"
         width="113.85929"
         height="113.85929"
         x="611.32825"
         y="-211.11659"
         ry="7.5576687"
         transform="scale(-1,1)" />
    </clipPath>
    <clipPath
       clipPathUnits="userSpaceOnUse"
       id="clipPath1107-9">
      <rect
         style="fill:none;fill-opacity:1;stroke:#ffff00;stroke-width:0.938579"
         id="rect1109-7"
         width="113.85929"
         height="113.85929"
         x="611.32825"
         y="-211.11659"
         ry="7.5576687"
         transform="scale(-1,1)" />
    </clipPath>
    <clipPath
       clipPathUnits="userSpaceOnUse"
       id="clipPath1225">
      <rect
         style="fill:none;fill-opacity:1;stroke:#ffff00;stroke-width:0.938574"
         id="rect1227"
         width="113.85929"
         height="113.85929"
         x="611.32825"
         y="-211.11659"
         ry="7.5576687"
         transform="scale(-1,1)" />
    </clipPath>
    <clipPath
       clipPathUnits="userSpaceOnUse"
       id="clipPath1107-75-6">
      <rect
         style="fill:none;fill-opacity:1;stroke:#ffff00;stroke-width:0.938579"
         id="rect1109-3-2"
         width="113.85929"
         height="113.85929"
         x="611.32825"
         y="-211.11659"
         ry="7.5576687"
         transform="scale(-1,1)" />
    </clipPath>
    <clipPath
       clipPathUnits="userSpaceOnUse"
       id="clipPath919">
      <rect
         style="fill:none;fill-opacity:1;stroke:#ffff00;stroke-width:0.922758"
         id="rect921"
         width="111.79334"
         height="112.0893"
         x="98.290276"
         y="612.21326"
         ry="6.1026506"
         transform="matrix(0,-1,-1,0,0,0)" />
    </clipPath>
    <clipPath
       clipPathUnits="userSpaceOnUse"
       id="clipPath1107-2">
      <rect
         style="fill:none;fill-opacity:1;stroke:#ffff00;stroke-width:0.938579"
         id="rect1109-70"
         width="113.85929"
         height="113.85929"
         x="611.32825"
         y="-211.11659"
         ry="7.5576687"
         transform="scale(-1,1)" />
    </clipPath>
    <clipPath
       clipPathUnits="userSpaceOnUse"
       id="clipPath1107-9-9">
      <rect
         style="fill:none;fill-opacity:1;stroke:#ffff00;stroke-width:0.938579"
         id="rect1109-7-3"
         width="113.85929"
         height="113.85929"
         x="611.32825"
         y="-211.11659"
         ry="7.5576687"
         transform="scale(-1,1)" />
    </clipPath>
    <clipPath
       clipPathUnits="userSpaceOnUse"
       id="clipPath1225-6">
      <rect
         style="fill:none;fill-opacity:1;stroke:#ffff00;stroke-width:0.938574"
         id="rect1227-0"
         width="113.85929"
         height="113.85929"
         x="611.32825"
         y="-211.11659"
         ry="7.5576687"
         transform="scale(-1,1)" />
    </clipPath>
    <clipPath
       clipPathUnits="userSpaceOnUse"
       id="clipPath1107-75-6-6">
      <rect
         style="fill:none;fill-opacity:1;stroke:#ffff00;stroke-width:0.938579"
         id="rect1109-3-2-2"
         width="113.85929"
         height="113.85929"
         x="611.32825"
         y="-211.11659"
         ry="7.5576687"
         transform="scale(-1,1)" />
    </clipPath>
    <clipPath
       clipPathUnits="userSpaceOnUse"
       id="clipPath919-3">
      <rect
         style="fill:none;fill-opacity:1;stroke:#ffff00;stroke-width:0.922758"
         id="rect921-6"
         width="111.79334"
         height="112.0893"
         x="98.290276"
         y="612.21326"
         ry="6.1026506"
         transform="matrix(0,-1,-1,0,0,0)" />
    </clipPath>
    <clipPath
       id="p91d685fb8b-6">
      <rect
         height="69.88414"
         width="80.389832"
         x="153"
         y="25.951929"
         id="rect2943-8" />
    </clipPath>
    <clipPath
       id="pa9ac86aff0-3">
      <rect
         height="69.88414"
         width="80.389832"
         x="249.4678"
         y="25.951929"
         id="rect2946-5" />
    </clipPath>
    <clipPath
       id="p1011de496a-7">
      <rect
         height="69.88414"
         width="80.389832"
         x="345.93561"
         y="25.951929"
         id="rect2949-2" />
    </clipPath>
    <clipPath
       id="clipPath8649">
      <rect
         height="69.88414"
         width="80.389832"
         x="345.93561"
         y="25.951929"
         id="rect8647" />
    </clipPath>
    <clipPath
       id="clipPath8653">
      <rect
         height="69.88414"
         width="80.389832"
         x="345.93561"
         y="25.951929"
         id="rect8651" />
    </clipPath>
    <clipPath
       id="pb17d32842a-0">
      <rect
         height="69.88414"
         width="80.389832"
         x="442.40338"
         y="25.951929"
         id="rect2952-73" />
    </clipPath>
    <clipPath
       id="clipPath8659">
      <rect
         height="69.88414"
         width="80.389832"
         x="442.40338"
         y="25.951929"
         id="rect8657" />
    </clipPath>
    <clipPath
       id="clipPath8663">
      <rect
         height="69.88414"
         width="80.389832"
         x="442.40338"
         y="25.951929"
         id="rect8661" />
    </clipPath>
    <clipPath
       id="pc4f73b813e-8">
      <rect
         height="69.88414"
         width="80.389832"
         x="538.87122"
         y="25.951929"
         id="rect2955-7" />
    </clipPath>
    <clipPath
       id="p569b3b435e-21">
      <rect
         height="69.88414"
         width="80.389832"
         x="635.33899"
         y="25.951929"
         id="rect2958-3" />
    </clipPath>
    <clipPath
       id="clipPath8671">
      <rect
         height="69.88414"
         width="80.389832"
         x="635.33899"
         y="25.951929"
         id="rect8669" />
    </clipPath>
    <clipPath
       id="pd2ebc35a6c-5-3">
      <rect
         height="69.88414"
         width="80.389832"
         x="731.80676"
         y="25.951929"
         id="rect2961-1-9" />
    </clipPath>
    <clipPath
       id="clipPath8677">
      <rect
         height="69.88414"
         width="80.389832"
         x="731.80676"
         y="25.951929"
         id="rect8675" />
    </clipPath>
    <clipPath
       id="clipPath8681">
      <rect
         height="69.88414"
         width="80.389832"
         x="731.80676"
         y="25.951929"
         id="rect8679" />
    </clipPath>
    <clipPath
       id="p259f5e6de2-9-5">
      <rect
         height="69.88414"
         width="80.389832"
         x="828.2746"
         y="25.951929"
         id="rect2964-4-3" />
    </clipPath>
    <clipPath
       id="clipPath8687">
      <rect
         height="69.88414"
         width="80.389832"
         x="828.2746"
         y="25.951929"
         id="rect8685" />
    </clipPath>
    <clipPath
       id="clipPath8691">
      <rect
         height="69.88414"
         width="80.389832"
         x="828.2746"
         y="25.951929"
         id="rect8689" />
    </clipPath>
    <marker
       style="overflow:visible"
       id="TriangleOutS-4-3-9"
       refX="0"
       refY="0"
       orient="auto"
       inkscape:stockid="TriangleOutS"
       inkscape:isstock="true">
      <path
         transform="scale(0.2)"
         style="fill:#808080;fill-opacity:1;fill-rule:evenodd;stroke:#808080;stroke-width:1pt;stroke-opacity:1"
         d="M 5.77,0 -2.88,5 V -5 Z"
         id="path51582-2-6-2" />
    </marker>
    <clipPath
       id="pa150983a36-0-2">
      <rect
         height="69.88414"
         width="80.389832"
         x="924.74237"
         y="25.951929"
         id="rect2967-9-4" />
    </clipPath>
    <clipPath
       id="pcaabac4bf3-2-8">
      <rect
         height="69.88414"
         width="80.389832"
         x="1021.2101"
         y="25.951929"
         id="rect2970-9-3" />
    </clipPath>
    <clipPath
       id="clipPath8701">
      <rect
         height="69.88414"
         width="80.389832"
         x="1021.2101"
         y="25.951929"
         id="rect8699" />
    </clipPath>
    <path
       d="m 0,-0.866025 -0.866025,1.73205 h 1.73205 z"
       id="path45540"
       style="stroke:#1f77b4" />
    <path
       d="m 0,0.866025 c 0.229673,0 0.449969,-0.091249 0.612372,-0.253653 C 0.774776,0.449969 0.866025,0.229673 0.866025,0 c 0,-0.229673 -0.091249,-0.449969 -0.253653,-0.612372 C 0.449969,-0.774776 0.229673,-0.866025 0,-0.866025 c -0.229673,0 -0.449969,0.091249 -0.612372,0.253653 C -0.774776,-0.449969 -0.866025,-0.229673 -0.866025,0 c 0,0.229673 0.091249,0.449969 0.253653,0.612372 C -0.449969,0.774776 -0.229673,0.866025 0,0.866025 Z"
       id="path45716"
       style="stroke:#ff7f0e" />
    <path
       d="m 0,-0.866025 -0.866025,1.73205 h 1.73205 z"
       id="path45930"
       style="stroke:#7f7f7f" />
    <path
       d="m 0,0.866025 c 0.229673,0 0.449969,-0.091249 0.612372,-0.253653 C 0.774776,0.449969 0.866025,0.229673 0.866025,0 c 0,-0.229673 -0.091249,-0.449969 -0.253653,-0.612372 C 0.449969,-0.774776 0.229673,-0.866025 0,-0.866025 c -0.229673,0 -0.449969,0.091249 -0.612372,0.253653 C -0.774776,-0.449969 -0.866025,-0.229673 -0.866025,0 c 0,0.229673 0.091249,0.449969 0.253653,0.612372 C -0.449969,0.774776 -0.229673,0.866025 0,0.866025 Z"
       id="path46106"
       style="stroke:#7f7f7f" />
    <path
       d="m 0,0.866025 0.866025,-1.73205 h -1.73205 z"
       id="path46242"
       style="stroke:#d62728" />
    <clipPath
       id="pfac84c4b2d">
      <rect
         height="69.88414"
         width="80.389832"
         x="153"
         y="25.951929"
         id="rect2943" />
    </clipPath>
    <clipPath
       id="p64037436a8">
      <rect
         height="69.88414"
         width="80.389832"
         x="249.4678"
         y="25.951929"
         id="rect2946" />
    </clipPath>
    <clipPath
       id="p6ffa6b6c34">
      <rect
         height="69.88414"
         width="80.389832"
         x="345.93561"
         y="25.951929"
         id="rect2949" />
    </clipPath>
    <clipPath
       id="clipPath3818">
      <rect
         height="69.88414"
         width="80.389832"
         x="345.93561"
         y="25.951929"
         id="rect3816" />
    </clipPath>
    <clipPath
       id="clipPath3822">
      <rect
         height="69.88414"
         width="80.389832"
         x="345.93561"
         y="25.951929"
         id="rect3820" />
    </clipPath>
    <clipPath
       id="pe071b34298">
      <rect
         height="69.88414"
         width="80.389832"
         x="442.40338"
         y="25.951929"
         id="rect2952" />
    </clipPath>
    <clipPath
       id="clipPath3828">
      <rect
         height="69.88414"
         width="80.389832"
         x="442.40338"
         y="25.951929"
         id="rect3826" />
    </clipPath>
    <clipPath
       id="clipPath3832">
      <rect
         height="69.88414"
         width="80.389832"
         x="442.40338"
         y="25.951929"
         id="rect3830" />
    </clipPath>
    <clipPath
       id="pea0fb85f59">
      <rect
         height="69.88414"
         width="80.389832"
         x="538.87122"
         y="25.951929"
         id="rect2955" />
    </clipPath>
    <clipPath
       id="p8a3304edaa">
      <rect
         height="69.88414"
         width="80.389832"
         x="635.33899"
         y="25.951929"
         id="rect2958" />
    </clipPath>
    <clipPath
       id="clipPath3840">
      <rect
         height="69.88414"
         width="80.389832"
         x="635.33899"
         y="25.951929"
         id="rect3838" />
    </clipPath>
    <clipPath
       id="pa2a552ac79">
      <rect
         height="69.88414"
         width="80.389832"
         x="731.80676"
         y="25.951929"
         id="rect2961" />
    </clipPath>
    <clipPath
       id="clipPath3846">
      <rect
         height="69.88414"
         width="80.389832"
         x="731.80676"
         y="25.951929"
         id="rect3844" />
    </clipPath>
    <clipPath
       id="clipPath3850">
      <rect
         height="69.88414"
         width="80.389832"
         x="731.80676"
         y="25.951929"
         id="rect3848" />
    </clipPath>
    <clipPath
       id="p47e503c6fa">
      <rect
         height="69.88414"
         width="80.389832"
         x="828.2746"
         y="25.951929"
         id="rect2964" />
    </clipPath>
    <clipPath
       id="clipPath3856">
      <rect
         height="69.88414"
         width="80.389832"
         x="828.2746"
         y="25.951929"
         id="rect3854" />
    </clipPath>
    <clipPath
       id="clipPath3860">
      <rect
         height="69.88414"
         width="80.389832"
         x="828.2746"
         y="25.951929"
         id="rect3858" />
    </clipPath>
    <clipPath
       id="pdeb8869d25">
      <rect
         height="69.88414"
         width="80.389832"
         x="924.74237"
         y="25.951929"
         id="rect2967" />
    </clipPath>
    <clipPath
       id="pbfae823fe1">
      <rect
         height="69.88414"
         width="80.389832"
         x="1021.2101"
         y="25.951929"
         id="rect2970" />
    </clipPath>
    <clipPath
       id="clipPath3868">
      <rect
         height="69.88414"
         width="80.389832"
         x="1021.2101"
         y="25.951929"
         id="rect3866" />
    </clipPath>
    <path
       d="m 0,-0.866025 -0.866025,1.73205 h 1.73205 z"
       id="m5204aa0944"
       style="stroke:#1f77b4" />
    <path
       d="m 0,0.866025 c 0.229673,0 0.449969,-0.091249 0.612372,-0.253653 C 0.774776,0.449969 0.866025,0.229673 0.866025,0 c 0,-0.229673 -0.091249,-0.449969 -0.253653,-0.612372 C 0.449969,-0.774776 0.229673,-0.866025 0,-0.866025 c -0.229673,0 -0.449969,0.091249 -0.612372,0.253653 C -0.774776,-0.449969 -0.866025,-0.229673 -0.866025,0 c 0,0.229673 0.091249,0.449969 0.253653,0.612372 C -0.449969,0.774776 -0.229673,0.866025 0,0.866025 Z"
       id="m5db501598f"
       style="stroke:#ff7f0e" />
    <path
       d="m 0,-0.866025 -0.866025,1.73205 h 1.73205 z"
       id="m2088488cf9"
       style="stroke:#7f7f7f" />
    <path
       d="m 0,0.866025 c 0.229673,0 0.449969,-0.091249 0.612372,-0.253653 C 0.774776,0.449969 0.866025,0.229673 0.866025,0 c 0,-0.229673 -0.091249,-0.449969 -0.253653,-0.612372 C 0.449969,-0.774776 0.229673,-0.866025 0,-0.866025 c -0.229673,0 -0.449969,0.091249 -0.612372,0.253653 C -0.774776,-0.449969 -0.866025,-0.229673 -0.866025,0 c 0,0.229673 0.091249,0.449969 0.253653,0.612372 C -0.449969,0.774776 -0.229673,0.866025 0,0.866025 Z"
       id="m2baf44870e"
       style="stroke:#7f7f7f" />
    <path
       d="m 0,0.866025 0.866025,-1.73205 h -1.73205 z"
       id="m433941bbe3"
       style="stroke:#d62728" />
    <rect
       x="121.66698"
       y="17.233942"
       width="328.4335"
       height="111.52599"
       id="rect24344" />
    <rect
       x="121.66698"
       y="17.233942"
       width="328.4335"
       height="111.52599"
       id="rect24519" />
    <rect
       x="121.66698"
       y="17.233942"
       width="328.4335"
       height="111.52599"
       id="rect24529" />
    <rect
       x="121.66698"
       y="17.233942"
       width="328.4335"
       height="111.52599"
       id="rect24560" />
    <rect
       x="121.66698"
       y="17.233942"
       width="328.4335"
       height="111.52599"
       id="rect3000" />
    <clipPath
       clipPathUnits="userSpaceOnUse"
       id="clipPath55840">
      <rect
         style="fill:none;stroke:#000000;stroke-width:0.0707256"
         id="rect55842"
         width="129.13353"
         height="90.388206"
         x="405.46503"
         y="185.86884" />
    </clipPath>
    <clipPath
       clipPathUnits="userSpaceOnUse"
       id="clipPath55858">
      <rect
         style="fill:none;stroke:#000000;stroke-width:0.0707224"
         id="rect55860"
         width="129.16301"
         height="90.358948"
         x="534.55768"
         y="185.88347" />
    </clipPath>
    <clipPath
       id="p91d685fb8b-6-2">
      <rect
         height="69.88414"
         width="80.389832"
         x="153"
         y="25.951929"
         id="rect2943-8-9" />
    </clipPath>
    <clipPath
       id="pa9ac86aff0-3-3">
      <rect
         height="69.88414"
         width="80.389832"
         x="249.4678"
         y="25.951929"
         id="rect2946-5-1" />
    </clipPath>
    <clipPath
       id="p1011de496a-7-9">
      <rect
         height="69.88414"
         width="80.389832"
         x="345.93561"
         y="25.951929"
         id="rect2949-2-4" />
    </clipPath>
    <clipPath
       id="clipPath6076">
      <rect
         height="69.88414"
         width="80.389832"
         x="345.93561"
         y="25.951929"
         id="rect6074" />
    </clipPath>
    <clipPath
       id="clipPath6080">
      <rect
         height="69.88414"
         width="80.389832"
         x="345.93561"
         y="25.951929"
         id="rect6078" />
    </clipPath>
    <clipPath
       id="pb17d32842a-0-7">
      <rect
         height="69.88414"
         width="80.389832"
         x="442.40338"
         y="25.951929"
         id="rect2952-73-8" />
    </clipPath>
    <clipPath
       id="clipPath6086">
      <rect
         height="69.88414"
         width="80.389832"
         x="442.40338"
         y="25.951929"
         id="rect6084" />
    </clipPath>
    <clipPath
       id="clipPath6090">
      <rect
         height="69.88414"
         width="80.389832"
         x="442.40338"
         y="25.951929"
         id="rect6088" />
    </clipPath>
    <clipPath
       id="pc4f73b813e-8-4">
      <rect
         height="69.88414"
         width="80.389832"
         x="538.87122"
         y="25.951929"
         id="rect2955-7-5" />
    </clipPath>
    <clipPath
       id="p569b3b435e-21-0">
      <rect
         height="69.88414"
         width="80.389832"
         x="635.33899"
         y="25.951929"
         id="rect2958-3-3" />
    </clipPath>
    <clipPath
       id="clipPath6098">
      <rect
         height="69.88414"
         width="80.389832"
         x="635.33899"
         y="25.951929"
         id="rect6096" />
    </clipPath>
    <clipPath
       id="pd2ebc35a6c-5-3-6">
      <rect
         height="69.88414"
         width="80.389832"
         x="731.80676"
         y="25.951929"
         id="rect2961-1-9-1" />
    </clipPath>
    <clipPath
       id="clipPath6104">
      <rect
         height="69.88414"
         width="80.389832"
         x="731.80676"
         y="25.951929"
         id="rect6102" />
    </clipPath>
    <clipPath
       id="clipPath6108">
      <rect
         height="69.88414"
         width="80.389832"
         x="731.80676"
         y="25.951929"
         id="rect6106" />
    </clipPath>
    <clipPath
       id="p259f5e6de2-9-5-0">
      <rect
         height="69.88414"
         width="80.389832"
         x="828.2746"
         y="25.951929"
         id="rect2964-4-3-6" />
    </clipPath>
    <clipPath
       id="clipPath6114">
      <rect
         height="69.88414"
         width="80.389832"
         x="828.2746"
         y="25.951929"
         id="rect6112" />
    </clipPath>
    <clipPath
       id="clipPath6118">
      <rect
         height="69.88414"
         width="80.389832"
         x="828.2746"
         y="25.951929"
         id="rect6116" />
    </clipPath>
    <clipPath
       id="pa150983a36-0-2-3">
      <rect
         height="69.88414"
         width="80.389832"
         x="924.74237"
         y="25.951929"
         id="rect2967-9-4-2" />
    </clipPath>
    <clipPath
       id="pcaabac4bf3-2-8-0">
      <rect
         height="69.88414"
         width="80.389832"
         x="1021.2101"
         y="25.951929"
         id="rect2970-9-3-6" />
    </clipPath>
    <clipPath
       id="clipPath6126">
      <rect
         height="69.88414"
         width="80.389832"
         x="1021.2101"
         y="25.951929"
         id="rect6124" />
    </clipPath>
    <path
       d="m 0,-0.866025 -0.866025,1.73205 h 1.73205 z"
       id="path45540-1"
       style="stroke:#1f77b4" />
    <path
       d="m 0,0.866025 c 0.229673,0 0.449969,-0.091249 0.612372,-0.253653 C 0.774776,0.449969 0.866025,0.229673 0.866025,0 c 0,-0.229673 -0.091249,-0.449969 -0.253653,-0.612372 C 0.449969,-0.774776 0.229673,-0.866025 0,-0.866025 c -0.229673,0 -0.449969,0.091249 -0.612372,0.253653 C -0.774776,-0.449969 -0.866025,-0.229673 -0.866025,0 c 0,0.229673 0.091249,0.449969 0.253653,0.612372 C -0.449969,0.774776 -0.229673,0.866025 0,0.866025 Z"
       id="path45716-5"
       style="stroke:#ff7f0e" />
    <path
       d="m 0,-0.866025 -0.866025,1.73205 h 1.73205 z"
       id="path45930-5"
       style="stroke:#7f7f7f" />
    <path
       d="m 0,0.866025 c 0.229673,0 0.449969,-0.091249 0.612372,-0.253653 C 0.774776,0.449969 0.866025,0.229673 0.866025,0 c 0,-0.229673 -0.091249,-0.449969 -0.253653,-0.612372 C 0.449969,-0.774776 0.229673,-0.866025 0,-0.866025 c -0.229673,0 -0.449969,0.091249 -0.612372,0.253653 C -0.774776,-0.449969 -0.866025,-0.229673 -0.866025,0 c 0,0.229673 0.091249,0.449969 0.253653,0.612372 C -0.449969,0.774776 -0.229673,0.866025 0,0.866025 Z"
       id="path46106-4"
       style="stroke:#7f7f7f" />
    <path
       d="m 0,0.866025 0.866025,-1.73205 h -1.73205 z"
       id="path46242-7"
       style="stroke:#d62728" />
    <clipPath
       clipPathUnits="userSpaceOnUse"
       id="clipPath55840-6">
      <rect
         style="fill:none;stroke:#000000;stroke-width:0.0707256"
         id="rect55842-9"
         width="129.13353"
         height="90.388206"
         x="405.46503"
         y="185.86884" />
    </clipPath>
    <clipPath
       clipPathUnits="userSpaceOnUse"
       id="clipPath55858-3">
      <rect
         style="fill:none;stroke:#000000;stroke-width:0.0707224"
         id="rect55860-7"
         width="129.16301"
         height="90.358948"
         x="534.55768"
         y="185.88347" />
    </clipPath>
    <rect
       x="121.66698"
       y="17.233942"
       width="439.58445"
       height="37.423987"
       id="rect3045" />
    <rect
       x="121.66698"
       y="17.233942"
       width="328.4335"
       height="111.52599"
       id="rect15420" />
    <rect
       x="121.66698"
       y="17.233942"
       width="328.4335"
       height="111.52599"
       id="rect15448" />
    <rect
       x="121.66698"
       y="17.233942"
       width="328.4335"
       height="111.52599"
       id="rect15454" />
    <rect
       x="121.66698"
       y="17.233942"
       width="328.4335"
       height="111.52599"
       id="rect15460" />
    <rect
       x="121.66698"
       y="17.233942"
       width="328.4335"
       height="111.52599"
       id="rect15466" />
    <rect
       x="121.66698"
       y="17.233942"
       width="328.4335"
       height="111.52599"
       id="rect15591" />
    <defs
       id="defs13550">
      <path
         d="m 0,0.866025 0.866025,-1.73205 h -1.73205 z"
         id="path13548"
         style="stroke:#d62728" />
    </defs>
    <rect
       x="121.66698"
       y="17.233942"
       width="148.07354"
       height="12.80791"
       id="rect3348" />
    <rect
       x="121.66698"
       y="17.233942"
       width="328.4335"
       height="111.52599"
       id="rect867-3" />
    <rect
       x="121.66698"
       y="17.233942"
       width="328.4335"
       height="111.52599"
       id="rect3274" />
    <rect
       x="351.11633"
       y="337.88034"
       width="200.61339"
       height="22.463528"
       id="rect24548-6" />
    <rect
       x="351.11633"
       y="337.88034"
       width="200.61339"
       height="22.463528"
       id="rect3277" />
    <rect
       x="121.66698"
       y="17.233942"
       width="328.4335"
       height="111.52599"
       id="rect3751" />
    <rect
       x="121.66698"
       y="17.233942"
       width="328.4335"
       height="111.52599"
       id="rect3783" />
    <rect
       x="121.66698"
       y="17.233942"
       width="328.4335"
       height="111.52599"
       id="rect3789" />
    <clipPath
       clipPathUnits="userSpaceOnUse"
       id="clipPath919-3-5">
      <rect
         style="fill:none;fill-opacity:1;stroke:#ffff00;stroke-width:0.922758"
         id="rect921-6-3"
         width="111.79334"
         height="112.0893"
         x="98.290276"
         y="612.21326"
         ry="6.1026506"
         transform="matrix(0,-1,-1,0,0,0)" />
    </clipPath>
  </defs>
  <sodipodi:namedview
     id="base"
     pagecolor="#ffffff"
     bordercolor="#666666"
     borderopacity="1.0"
     inkscape:pageopacity="0.0"
     inkscape:pageshadow="2"
     inkscape:zoom="0.35355339"
     inkscape:cx="199.5823"
     inkscape:cy="305.61713"
     inkscape:document-units="px"
     inkscape:current-layer="layer1"
     inkscape:document-rotation="0"
     showgrid="false"
     units="px"
     inkscape:window-width="1920"
     inkscape:window-height="1027"
     inkscape:window-x="0"
     inkscape:window-y="25"
     inkscape:window-maximized="1"
     showguides="true"
     inkscape:guide-bbox="true"
     inkscape:snap-object-midpoints="false"
     inkscape:snap-bbox="true"
     inkscape:snap-bbox-edge-midpoints="false"
     inkscape:bbox-paths="false"
     inkscape:bbox-nodes="false"
     inkscape:snap-bbox-midpoints="true" />
  <metadata
     id="metadata5">
    <rdf:RDF>
      <cc:Work
         rdf:about="">
        <dc:format>image/svg+xml</dc:format>
        <dc:type
           rdf:resource="http://purl.org/dc/dcmitype/StillImage" />
        <dc:title></dc:title>
      </cc:Work>
    </rdf:RDF>
  </metadata>
  <g
     inkscape:groupmode="layer"
     id="layer2"
     inkscape:label="Background"
     style="display:inline"
     sodipodi:insensitive="true">
    <rect
       style="fill:#15616d;fill-opacity:1;stroke:none;stroke-width:1;stroke-linecap:round;stroke-linejoin:round"
       id="rect3005"
       width="508"
       height="285.75"
       x="7.1054274e-15"
       y="-1.4210855e-14" />
  </g>
  <g
     inkscape:label="Layer 1"
     inkscape:groupmode="layer"
     id="layer1">
    <g
       id="g15724"
       transform="translate(-24.852708,8.0551357)">
      <text
         xml:space="preserve"
         id="text3043"
         style="font-style:normal;font-weight:normal;font-size:31.75px;line-height:1.25;font-family:sans-serif;white-space:pre;shape-inside:url(#rect3045);fill:#ffecd1;fill-opacity:1;stroke:none;"
         x="159.41365"
         y="0"
         transform="translate(-62.327224,100.51258)"><tspan
           x="273.30035"
           y="46.011996"><tspan
             style="font-style:normal;font-variant:normal;font-weight:normal;font-stretch:normal;font-size:31.75px;font-family:ANTON;-inkscape-font-specification:ANTON;text-align:center;text-anchor:middle;fill:#ffecd1">Thank you!</tspan></tspan></text>
    </g>
  </g>
  <style
     type="text/css"
     id="style1026">
	.st0{fill:#1373BA;}
</style>
</svg>
