<?xml version="1.0" encoding="UTF-8" standalone="no"?>
<svg
   xmlns:dc="http://purl.org/dc/elements/1.1/"
   xmlns:cc="http://creativecommons.org/ns#"
   xmlns:rdf="http://www.w3.org/1999/02/22-rdf-syntax-ns#"
   xmlns:svg="http://www.w3.org/2000/svg"
   xmlns="http://www.w3.org/2000/svg"
   xmlns:xlink="http://www.w3.org/1999/xlink"
   xmlns:sodipodi="http://sodipodi.sourceforge.net/DTD/sodipodi-0.dtd"
   xmlns:inkscape="http://www.inkscape.org/namespaces/inkscape"
   width="1920"
   height="1080"
   viewBox="0 0 508 285.75"
   version="1.1"
   id="svg8"
   inkscape:version="1.0.2 (e86c870879, 2021-01-15, custom)"
   sodipodi:docname="slide8.svg">
  <defs
     id="defs2">
    <marker
       style="overflow:visible"
       id="marker20297"
       refX="0"
       refY="0"
       orient="auto"
       inkscape:stockid="TriangleOutS"
       inkscape:isstock="true">
      <path
         transform="scale(0.2)"
         style="fill:#15616d;fill-opacity:1;fill-rule:evenodd;stroke:#15616d;stroke-width:1pt;stroke-opacity:1"
         d="M 5.77,0 -2.88,5 V -5 Z"
         id="path20295" />
    </marker>
    <marker
       style="overflow:visible"
       id="marker6320"
       refX="0"
       refY="0"
       orient="auto"
       inkscape:stockid="TriangleOutS"
       inkscape:isstock="true">
      <path
         transform="scale(0.2)"
         style="fill:#15616d;fill-opacity:1;fill-rule:evenodd;stroke:#15616d;stroke-width:1pt;stroke-opacity:1"
         d="M 5.77,0 -2.88,5 V -5 Z"
         id="path6318" />
    </marker>
    <marker
       style="overflow:visible"
       id="marker6310"
       refX="0"
       refY="0"
       orient="auto"
       inkscape:stockid="TriangleOutS"
       inkscape:isstock="true">
      <path
         transform="scale(0.2)"
         style="fill:#15616d;fill-opacity:1;fill-rule:evenodd;stroke:#15616d;stroke-width:1pt;stroke-opacity:1"
         d="M 5.77,0 -2.88,5 V -5 Z"
         id="path6308" />
    </marker>
    <marker
       style="overflow:visible"
       id="marker6290"
       refX="0"
       refY="0"
       orient="auto"
       inkscape:stockid="TriangleOutS"
       inkscape:isstock="true">
      <path
         transform="scale(0.2)"
         style="fill:#15616d;fill-opacity:1;fill-rule:evenodd;stroke:#15616d;stroke-width:1pt;stroke-opacity:1"
         d="M 5.77,0 -2.88,5 V -5 Z"
         id="path6288" />
    </marker>
    <marker
       style="overflow:visible"
       id="marker6280"
       refX="0"
       refY="0"
       orient="auto"
       inkscape:stockid="TriangleOutS"
       inkscape:isstock="true">
      <path
         transform="scale(0.2)"
         style="fill:#15616d;fill-opacity:1;fill-rule:evenodd;stroke:#15616d;stroke-width:1pt;stroke-opacity:1"
         d="M 5.77,0 -2.88,5 V -5 Z"
         id="path6278" />
    </marker>
    <marker
       style="overflow:visible"
       id="marker7099"
       refX="0"
       refY="0"
       orient="auto"
       inkscape:stockid="TriangleOutS"
       inkscape:isstock="true">
      <path
         transform="scale(0.2)"
         style="fill:#808080;fill-opacity:1;fill-rule:evenodd;stroke:#808080;stroke-width:1pt;stroke-opacity:1"
         d="M 5.77,0 -2.88,5 V -5 Z"
         id="path7097" />
    </marker>
    <rect
       x="351.11634"
       y="337.88033"
       width="200.61339"
       height="22.463528"
       id="rect24548" />
    <rect
       x="121.66698"
       y="17.233942"
       width="328.4335"
       height="111.52599"
       id="rect853" />
    <rect
       x="121.66698"
       y="17.233942"
       width="100.3084"
       height="28.132661"
       id="rect861" />
    <rect
       x="121.66698"
       y="17.233942"
       width="328.4335"
       height="111.52599"
       id="rect867" />
    <rect
       x="121.66698"
       y="17.233942"
       width="328.4335"
       height="111.52599"
       id="rect873" />
    <rect
       x="121.66698"
       y="17.233942"
       width="328.4335"
       height="111.52599"
       id="rect879" />
    <rect
       x="121.66698"
       y="17.233942"
       width="328.4335"
       height="111.52599"
       id="rect885" />
    <rect
       x="121.66698"
       y="17.233942"
       width="328.4335"
       height="111.52599"
       id="rect891" />
    <rect
       x="121.66698"
       y="17.233942"
       width="328.4335"
       height="111.52599"
       id="rect1004" />
    <rect
       x="121.66698"
       y="17.233942"
       width="328.4335"
       height="111.52599"
       id="rect1024" />
    <defs
       id="defs3">
      <rect
         height="692.97803"
         width="976.01599"
         y="3.0220001"
         x="3.984"
         id="SVGID_1_" />
    </defs>
    <clipPath
       id="SVGID_2_">
      <use
         id="use5"
         overflow="visible"
         xlink:href="#SVGID_1_"
         style="overflow:visible"
         x="0"
         y="0"
         width="100%"
         height="100%" />
    </clipPath>
    <rect
       height="692.97803"
       width="976.01599"
       y="3.0220001"
       x="3.984"
       id="rect1204" />
    <clipPath
       clipPathUnits="userSpaceOnUse"
       id="clipPath1107">
      <rect
         style="fill:none;fill-opacity:1;stroke:#ffff00;stroke-width:0.938579"
         id="rect1109"
         width="113.85929"
         height="113.85929"
         x="611.32825"
         y="-211.11659"
         ry="7.5576687"
         transform="scale(-1,1)" />
    </clipPath>
    <clipPath
       clipPathUnits="userSpaceOnUse"
       id="clipPath1107-9">
      <rect
         style="fill:none;fill-opacity:1;stroke:#ffff00;stroke-width:0.938579"
         id="rect1109-7"
         width="113.85929"
         height="113.85929"
         x="611.32825"
         y="-211.11659"
         ry="7.5576687"
         transform="scale(-1,1)" />
    </clipPath>
    <clipPath
       clipPathUnits="userSpaceOnUse"
       id="clipPath1225">
      <rect
         style="fill:none;fill-opacity:1;stroke:#ffff00;stroke-width:0.938574"
         id="rect1227"
         width="113.85929"
         height="113.85929"
         x="611.32825"
         y="-211.11659"
         ry="7.5576687"
         transform="scale(-1,1)" />
    </clipPath>
    <clipPath
       clipPathUnits="userSpaceOnUse"
       id="clipPath1107-75-6">
      <rect
         style="fill:none;fill-opacity:1;stroke:#ffff00;stroke-width:0.938579"
         id="rect1109-3-2"
         width="113.85929"
         height="113.85929"
         x="611.32825"
         y="-211.11659"
         ry="7.5576687"
         transform="scale(-1,1)" />
    </clipPath>
    <clipPath
       clipPathUnits="userSpaceOnUse"
       id="clipPath919">
      <rect
         style="fill:none;fill-opacity:1;stroke:#ffff00;stroke-width:0.922758"
         id="rect921"
         width="111.79334"
         height="112.0893"
         x="98.290276"
         y="612.21326"
         ry="6.1026506"
         transform="matrix(0,-1,-1,0,0,0)" />
    </clipPath>
    <clipPath
       clipPathUnits="userSpaceOnUse"
       id="clipPath1107-2">
      <rect
         style="fill:none;fill-opacity:1;stroke:#ffff00;stroke-width:0.938579"
         id="rect1109-70"
         width="113.85929"
         height="113.85929"
         x="611.32825"
         y="-211.11659"
         ry="7.5576687"
         transform="scale(-1,1)" />
    </clipPath>
    <clipPath
       clipPathUnits="userSpaceOnUse"
       id="clipPath1107-9-9">
      <rect
         style="fill:none;fill-opacity:1;stroke:#ffff00;stroke-width:0.938579"
         id="rect1109-7-3"
         width="113.85929"
         height="113.85929"
         x="611.32825"
         y="-211.11659"
         ry="7.5576687"
         transform="scale(-1,1)" />
    </clipPath>
    <clipPath
       clipPathUnits="userSpaceOnUse"
       id="clipPath1225-6">
      <rect
         style="fill:none;fill-opacity:1;stroke:#ffff00;stroke-width:0.938574"
         id="rect1227-0"
         width="113.85929"
         height="113.85929"
         x="611.32825"
         y="-211.11659"
         ry="7.5576687"
         transform="scale(-1,1)" />
    </clipPath>
    <clipPath
       clipPathUnits="userSpaceOnUse"
       id="clipPath1107-75-6-6">
      <rect
         style="fill:none;fill-opacity:1;stroke:#ffff00;stroke-width:0.938579"
         id="rect1109-3-2-2"
         width="113.85929"
         height="113.85929"
         x="611.32825"
         y="-211.11659"
         ry="7.5576687"
         transform="scale(-1,1)" />
    </clipPath>
    <clipPath
       clipPathUnits="userSpaceOnUse"
       id="clipPath919-3">
      <rect
         style="fill:none;fill-opacity:1;stroke:#ffff00;stroke-width:0.922758"
         id="rect921-6"
         width="111.79334"
         height="112.0893"
         x="98.290276"
         y="612.21326"
         ry="6.1026506"
         transform="matrix(0,-1,-1,0,0,0)" />
    </clipPath>
    <clipPath
       id="p91d685fb8b-6">
      <rect
         height="69.88414"
         width="80.389832"
         x="153"
         y="25.951929"
         id="rect2943-8" />
    </clipPath>
    <clipPath
       id="pa9ac86aff0-3">
      <rect
         height="69.88414"
         width="80.389832"
         x="249.4678"
         y="25.951929"
         id="rect2946-5" />
    </clipPath>
    <clipPath
       id="p1011de496a-7">
      <rect
         height="69.88414"
         width="80.389832"
         x="345.93561"
         y="25.951929"
         id="rect2949-2" />
    </clipPath>
    <clipPath
       id="clipPath8649">
      <rect
         height="69.88414"
         width="80.389832"
         x="345.93561"
         y="25.951929"
         id="rect8647" />
    </clipPath>
    <clipPath
       id="clipPath8653">
      <rect
         height="69.88414"
         width="80.389832"
         x="345.93561"
         y="25.951929"
         id="rect8651" />
    </clipPath>
    <clipPath
       id="pb17d32842a-0">
      <rect
         height="69.88414"
         width="80.389832"
         x="442.40338"
         y="25.951929"
         id="rect2952-73" />
    </clipPath>
    <clipPath
       id="clipPath8659">
      <rect
         height="69.88414"
         width="80.389832"
         x="442.40338"
         y="25.951929"
         id="rect8657" />
    </clipPath>
    <clipPath
       id="clipPath8663">
      <rect
         height="69.88414"
         width="80.389832"
         x="442.40338"
         y="25.951929"
         id="rect8661" />
    </clipPath>
    <clipPath
       id="pc4f73b813e-8">
      <rect
         height="69.88414"
         width="80.389832"
         x="538.87122"
         y="25.951929"
         id="rect2955-7" />
    </clipPath>
    <clipPath
       id="p569b3b435e-21">
      <rect
         height="69.88414"
         width="80.389832"
         x="635.33899"
         y="25.951929"
         id="rect2958-3" />
    </clipPath>
    <clipPath
       id="clipPath8671">
      <rect
         height="69.88414"
         width="80.389832"
         x="635.33899"
         y="25.951929"
         id="rect8669" />
    </clipPath>
    <clipPath
       id="pd2ebc35a6c-5-3">
      <rect
         height="69.88414"
         width="80.389832"
         x="731.80676"
         y="25.951929"
         id="rect2961-1-9" />
    </clipPath>
    <clipPath
       id="clipPath8677">
      <rect
         height="69.88414"
         width="80.389832"
         x="731.80676"
         y="25.951929"
         id="rect8675" />
    </clipPath>
    <clipPath
       id="clipPath8681">
      <rect
         height="69.88414"
         width="80.389832"
         x="731.80676"
         y="25.951929"
         id="rect8679" />
    </clipPath>
    <clipPath
       id="p259f5e6de2-9-5">
      <rect
         height="69.88414"
         width="80.389832"
         x="828.2746"
         y="25.951929"
         id="rect2964-4-3" />
    </clipPath>
    <clipPath
       id="clipPath8687">
      <rect
         height="69.88414"
         width="80.389832"
         x="828.2746"
         y="25.951929"
         id="rect8685" />
    </clipPath>
    <clipPath
       id="clipPath8691">
      <rect
         height="69.88414"
         width="80.389832"
         x="828.2746"
         y="25.951929"
         id="rect8689" />
    </clipPath>
    <marker
       style="overflow:visible"
       id="TriangleOutS-4-3-9"
       refX="0"
       refY="0"
       orient="auto"
       inkscape:stockid="TriangleOutS"
       inkscape:isstock="true">
      <path
         transform="scale(0.2)"
         style="fill:#808080;fill-opacity:1;fill-rule:evenodd;stroke:#808080;stroke-width:1pt;stroke-opacity:1"
         d="M 5.77,0 -2.88,5 V -5 Z"
         id="path51582-2-6-2" />
    </marker>
    <clipPath
       id="pa150983a36-0-2">
      <rect
         height="69.88414"
         width="80.389832"
         x="924.74237"
         y="25.951929"
         id="rect2967-9-4" />
    </clipPath>
    <clipPath
       id="pcaabac4bf3-2-8">
      <rect
         height="69.88414"
         width="80.389832"
         x="1021.2101"
         y="25.951929"
         id="rect2970-9-3" />
    </clipPath>
    <clipPath
       id="clipPath8701">
      <rect
         height="69.88414"
         width="80.389832"
         x="1021.2101"
         y="25.951929"
         id="rect8699" />
    </clipPath>
    <path
       d="m 0,-0.866025 -0.866025,1.73205 h 1.73205 z"
       id="path45540"
       style="stroke:#1f77b4" />
    <path
       d="m 0,0.866025 c 0.229673,0 0.449969,-0.091249 0.612372,-0.253653 C 0.774776,0.449969 0.866025,0.229673 0.866025,0 c 0,-0.229673 -0.091249,-0.449969 -0.253653,-0.612372 C 0.449969,-0.774776 0.229673,-0.866025 0,-0.866025 c -0.229673,0 -0.449969,0.091249 -0.612372,0.253653 C -0.774776,-0.449969 -0.866025,-0.229673 -0.866025,0 c 0,0.229673 0.091249,0.449969 0.253653,0.612372 C -0.449969,0.774776 -0.229673,0.866025 0,0.866025 Z"
       id="path45716"
       style="stroke:#ff7f0e" />
    <path
       d="m 0,-0.866025 -0.866025,1.73205 h 1.73205 z"
       id="path45930"
       style="stroke:#7f7f7f" />
    <path
       d="m 0,0.866025 c 0.229673,0 0.449969,-0.091249 0.612372,-0.253653 C 0.774776,0.449969 0.866025,0.229673 0.866025,0 c 0,-0.229673 -0.091249,-0.449969 -0.253653,-0.612372 C 0.449969,-0.774776 0.229673,-0.866025 0,-0.866025 c -0.229673,0 -0.449969,0.091249 -0.612372,0.253653 C -0.774776,-0.449969 -0.866025,-0.229673 -0.866025,0 c 0,0.229673 0.091249,0.449969 0.253653,0.612372 C -0.449969,0.774776 -0.229673,0.866025 0,0.866025 Z"
       id="path46106"
       style="stroke:#7f7f7f" />
    <path
       d="m 0,0.866025 0.866025,-1.73205 h -1.73205 z"
       id="path46242"
       style="stroke:#d62728" />
    <clipPath
       id="pfac84c4b2d">
      <rect
         height="69.88414"
         width="80.389832"
         x="153"
         y="25.951929"
         id="rect2943" />
    </clipPath>
    <clipPath
       id="p64037436a8">
      <rect
         height="69.88414"
         width="80.389832"
         x="249.4678"
         y="25.951929"
         id="rect2946" />
    </clipPath>
    <clipPath
       id="p6ffa6b6c34">
      <rect
         height="69.88414"
         width="80.389832"
         x="345.93561"
         y="25.951929"
         id="rect2949" />
    </clipPath>
    <clipPath
       id="clipPath3818">
      <rect
         height="69.88414"
         width="80.389832"
         x="345.93561"
         y="25.951929"
         id="rect3816" />
    </clipPath>
    <clipPath
       id="clipPath3822">
      <rect
         height="69.88414"
         width="80.389832"
         x="345.93561"
         y="25.951929"
         id="rect3820" />
    </clipPath>
    <clipPath
       id="pe071b34298">
      <rect
         height="69.88414"
         width="80.389832"
         x="442.40338"
         y="25.951929"
         id="rect2952" />
    </clipPath>
    <clipPath
       id="clipPath3828">
      <rect
         height="69.88414"
         width="80.389832"
         x="442.40338"
         y="25.951929"
         id="rect3826" />
    </clipPath>
    <clipPath
       id="clipPath3832">
      <rect
         height="69.88414"
         width="80.389832"
         x="442.40338"
         y="25.951929"
         id="rect3830" />
    </clipPath>
    <clipPath
       id="pea0fb85f59">
      <rect
         height="69.88414"
         width="80.389832"
         x="538.87122"
         y="25.951929"
         id="rect2955" />
    </clipPath>
    <clipPath
       id="p8a3304edaa">
      <rect
         height="69.88414"
         width="80.389832"
         x="635.33899"
         y="25.951929"
         id="rect2958" />
    </clipPath>
    <clipPath
       id="clipPath3840">
      <rect
         height="69.88414"
         width="80.389832"
         x="635.33899"
         y="25.951929"
         id="rect3838" />
    </clipPath>
    <clipPath
       id="pa2a552ac79">
      <rect
         height="69.88414"
         width="80.389832"
         x="731.80676"
         y="25.951929"
         id="rect2961" />
    </clipPath>
    <clipPath
       id="clipPath3846">
      <rect
         height="69.88414"
         width="80.389832"
         x="731.80676"
         y="25.951929"
         id="rect3844" />
    </clipPath>
    <clipPath
       id="clipPath3850">
      <rect
         height="69.88414"
         width="80.389832"
         x="731.80676"
         y="25.951929"
         id="rect3848" />
    </clipPath>
    <clipPath
       id="p47e503c6fa">
      <rect
         height="69.88414"
         width="80.389832"
         x="828.2746"
         y="25.951929"
         id="rect2964" />
    </clipPath>
    <clipPath
       id="clipPath3856">
      <rect
         height="69.88414"
         width="80.389832"
         x="828.2746"
         y="25.951929"
         id="rect3854" />
    </clipPath>
    <clipPath
       id="clipPath3860">
      <rect
         height="69.88414"
         width="80.389832"
         x="828.2746"
         y="25.951929"
         id="rect3858" />
    </clipPath>
    <clipPath
       id="pdeb8869d25">
      <rect
         height="69.88414"
         width="80.389832"
         x="924.74237"
         y="25.951929"
         id="rect2967" />
    </clipPath>
    <clipPath
       id="pbfae823fe1">
      <rect
         height="69.88414"
         width="80.389832"
         x="1021.2101"
         y="25.951929"
         id="rect2970" />
    </clipPath>
    <clipPath
       id="clipPath3868">
      <rect
         height="69.88414"
         width="80.389832"
         x="1021.2101"
         y="25.951929"
         id="rect3866" />
    </clipPath>
    <path
       d="m 0,-0.866025 -0.866025,1.73205 h 1.73205 z"
       id="m5204aa0944"
       style="stroke:#1f77b4" />
    <path
       d="m 0,0.866025 c 0.229673,0 0.449969,-0.091249 0.612372,-0.253653 C 0.774776,0.449969 0.866025,0.229673 0.866025,0 c 0,-0.229673 -0.091249,-0.449969 -0.253653,-0.612372 C 0.449969,-0.774776 0.229673,-0.866025 0,-0.866025 c -0.229673,0 -0.449969,0.091249 -0.612372,0.253653 C -0.774776,-0.449969 -0.866025,-0.229673 -0.866025,0 c 0,0.229673 0.091249,0.449969 0.253653,0.612372 C -0.449969,0.774776 -0.229673,0.866025 0,0.866025 Z"
       id="m5db501598f"
       style="stroke:#ff7f0e" />
    <path
       d="m 0,-0.866025 -0.866025,1.73205 h 1.73205 z"
       id="m2088488cf9"
       style="stroke:#7f7f7f" />
    <path
       d="m 0,0.866025 c 0.229673,0 0.449969,-0.091249 0.612372,-0.253653 C 0.774776,0.449969 0.866025,0.229673 0.866025,0 c 0,-0.229673 -0.091249,-0.449969 -0.253653,-0.612372 C 0.449969,-0.774776 0.229673,-0.866025 0,-0.866025 c -0.229673,0 -0.449969,0.091249 -0.612372,0.253653 C -0.774776,-0.449969 -0.866025,-0.229673 -0.866025,0 c 0,0.229673 0.091249,0.449969 0.253653,0.612372 C -0.449969,0.774776 -0.229673,0.866025 0,0.866025 Z"
       id="m2baf44870e"
       style="stroke:#7f7f7f" />
    <path
       d="m 0,0.866025 0.866025,-1.73205 h -1.73205 z"
       id="m433941bbe3"
       style="stroke:#d62728" />
    <rect
       x="121.66698"
       y="17.233942"
       width="328.4335"
       height="111.52599"
       id="rect24344" />
    <rect
       x="121.66698"
       y="17.233942"
       width="328.4335"
       height="111.52599"
       id="rect24519" />
    <rect
       x="121.66698"
       y="17.233942"
       width="328.4335"
       height="111.52599"
       id="rect24529" />
    <rect
       x="121.66698"
       y="17.233942"
       width="328.4335"
       height="111.52599"
       id="rect24560" />
    <rect
       x="121.66698"
       y="17.233942"
       width="328.4335"
       height="111.52599"
       id="rect3000" />
    <clipPath
       clipPathUnits="userSpaceOnUse"
       id="clipPath55840">
      <rect
         style="fill:none;stroke:#000000;stroke-width:0.0707256"
         id="rect55842"
         width="129.13353"
         height="90.388206"
         x="405.46503"
         y="185.86884" />
    </clipPath>
    <clipPath
       clipPathUnits="userSpaceOnUse"
       id="clipPath55858">
      <rect
         style="fill:none;stroke:#000000;stroke-width:0.0707224"
         id="rect55860"
         width="129.16301"
         height="90.358948"
         x="534.55768"
         y="185.88347" />
    </clipPath>
    <clipPath
       id="p91d685fb8b-6-2">
      <rect
         height="69.88414"
         width="80.389832"
         x="153"
         y="25.951929"
         id="rect2943-8-9" />
    </clipPath>
    <clipPath
       id="pa9ac86aff0-3-3">
      <rect
         height="69.88414"
         width="80.389832"
         x="249.4678"
         y="25.951929"
         id="rect2946-5-1" />
    </clipPath>
    <clipPath
       id="p1011de496a-7-9">
      <rect
         height="69.88414"
         width="80.389832"
         x="345.93561"
         y="25.951929"
         id="rect2949-2-4" />
    </clipPath>
    <clipPath
       id="clipPath6076">
      <rect
         height="69.88414"
         width="80.389832"
         x="345.93561"
         y="25.951929"
         id="rect6074" />
    </clipPath>
    <clipPath
       id="clipPath6080">
      <rect
         height="69.88414"
         width="80.389832"
         x="345.93561"
         y="25.951929"
         id="rect6078" />
    </clipPath>
    <clipPath
       id="pb17d32842a-0-7">
      <rect
         height="69.88414"
         width="80.389832"
         x="442.40338"
         y="25.951929"
         id="rect2952-73-8" />
    </clipPath>
    <clipPath
       id="clipPath6086">
      <rect
         height="69.88414"
         width="80.389832"
         x="442.40338"
         y="25.951929"
         id="rect6084" />
    </clipPath>
    <clipPath
       id="clipPath6090">
      <rect
         height="69.88414"
         width="80.389832"
         x="442.40338"
         y="25.951929"
         id="rect6088" />
    </clipPath>
    <clipPath
       id="pc4f73b813e-8-4">
      <rect
         height="69.88414"
         width="80.389832"
         x="538.87122"
         y="25.951929"
         id="rect2955-7-5" />
    </clipPath>
    <clipPath
       id="p569b3b435e-21-0">
      <rect
         height="69.88414"
         width="80.389832"
         x="635.33899"
         y="25.951929"
         id="rect2958-3-3" />
    </clipPath>
    <clipPath
       id="clipPath6098">
      <rect
         height="69.88414"
         width="80.389832"
         x="635.33899"
         y="25.951929"
         id="rect6096" />
    </clipPath>
    <clipPath
       id="pd2ebc35a6c-5-3-6">
      <rect
         height="69.88414"
         width="80.389832"
         x="731.80676"
         y="25.951929"
         id="rect2961-1-9-1" />
    </clipPath>
    <clipPath
       id="clipPath6104">
      <rect
         height="69.88414"
         width="80.389832"
         x="731.80676"
         y="25.951929"
         id="rect6102" />
    </clipPath>
    <clipPath
       id="clipPath6108">
      <rect
         height="69.88414"
         width="80.389832"
         x="731.80676"
         y="25.951929"
         id="rect6106" />
    </clipPath>
    <clipPath
       id="p259f5e6de2-9-5-0">
      <rect
         height="69.88414"
         width="80.389832"
         x="828.2746"
         y="25.951929"
         id="rect2964-4-3-6" />
    </clipPath>
    <clipPath
       id="clipPath6114">
      <rect
         height="69.88414"
         width="80.389832"
         x="828.2746"
         y="25.951929"
         id="rect6112" />
    </clipPath>
    <clipPath
       id="clipPath6118">
      <rect
         height="69.88414"
         width="80.389832"
         x="828.2746"
         y="25.951929"
         id="rect6116" />
    </clipPath>
    <clipPath
       id="pa150983a36-0-2-3">
      <rect
         height="69.88414"
         width="80.389832"
         x="924.74237"
         y="25.951929"
         id="rect2967-9-4-2" />
    </clipPath>
    <clipPath
       id="pcaabac4bf3-2-8-0">
      <rect
         height="69.88414"
         width="80.389832"
         x="1021.2101"
         y="25.951929"
         id="rect2970-9-3-6" />
    </clipPath>
    <clipPath
       id="clipPath6126">
      <rect
         height="69.88414"
         width="80.389832"
         x="1021.2101"
         y="25.951929"
         id="rect6124" />
    </clipPath>
    <path
       d="m 0,-0.866025 -0.866025,1.73205 h 1.73205 z"
       id="path45540-1"
       style="stroke:#1f77b4" />
    <path
       d="m 0,0.866025 c 0.229673,0 0.449969,-0.091249 0.612372,-0.253653 C 0.774776,0.449969 0.866025,0.229673 0.866025,0 c 0,-0.229673 -0.091249,-0.449969 -0.253653,-0.612372 C 0.449969,-0.774776 0.229673,-0.866025 0,-0.866025 c -0.229673,0 -0.449969,0.091249 -0.612372,0.253653 C -0.774776,-0.449969 -0.866025,-0.229673 -0.866025,0 c 0,0.229673 0.091249,0.449969 0.253653,0.612372 C -0.449969,0.774776 -0.229673,0.866025 0,0.866025 Z"
       id="path45716-5"
       style="stroke:#ff7f0e" />
    <path
       d="m 0,-0.866025 -0.866025,1.73205 h 1.73205 z"
       id="path45930-5"
       style="stroke:#7f7f7f" />
    <path
       d="m 0,0.866025 c 0.229673,0 0.449969,-0.091249 0.612372,-0.253653 C 0.774776,0.449969 0.866025,0.229673 0.866025,0 c 0,-0.229673 -0.091249,-0.449969 -0.253653,-0.612372 C 0.449969,-0.774776 0.229673,-0.866025 0,-0.866025 c -0.229673,0 -0.449969,0.091249 -0.612372,0.253653 C -0.774776,-0.449969 -0.866025,-0.229673 -0.866025,0 c 0,0.229673 0.091249,0.449969 0.253653,0.612372 C -0.449969,0.774776 -0.229673,0.866025 0,0.866025 Z"
       id="path46106-4"
       style="stroke:#7f7f7f" />
    <path
       d="m 0,0.866025 0.866025,-1.73205 h -1.73205 z"
       id="path46242-7"
       style="stroke:#d62728" />
    <clipPath
       clipPathUnits="userSpaceOnUse"
       id="clipPath55840-6">
      <rect
         style="fill:none;stroke:#000000;stroke-width:0.0707256"
         id="rect55842-9"
         width="129.13353"
         height="90.388206"
         x="405.46503"
         y="185.86884" />
    </clipPath>
    <clipPath
       clipPathUnits="userSpaceOnUse"
       id="clipPath55858-3">
      <rect
         style="fill:none;stroke:#000000;stroke-width:0.0707224"
         id="rect55860-7"
         width="129.16301"
         height="90.358948"
         x="534.55768"
         y="185.88347" />
    </clipPath>
    <rect
       x="121.66698"
       y="17.233942"
       width="439.58445"
       height="37.423987"
       id="rect3045" />
    <rect
       x="121.66698"
       y="17.233942"
       width="328.4335"
       height="111.52599"
       id="rect15420" />
    <rect
       x="121.66698"
       y="17.233942"
       width="328.4335"
       height="111.52599"
       id="rect15448" />
    <rect
       x="121.66698"
       y="17.233942"
       width="328.4335"
       height="111.52599"
       id="rect15454" />
    <rect
       x="121.66698"
       y="17.233942"
       width="328.4335"
       height="111.52599"
       id="rect15460" />
    <rect
       x="121.66698"
       y="17.233942"
       width="328.4335"
       height="111.52599"
       id="rect15466" />
    <rect
       x="121.66698"
       y="17.233942"
       width="328.4335"
       height="111.52599"
       id="rect15591" />
    <defs
       id="defs13550">
      <path
         d="m 0,0.866025 0.866025,-1.73205 h -1.73205 z"
         id="path13548"
         style="stroke:#d62728" />
    </defs>
    <rect
       x="121.66698"
       y="17.233942"
       width="148.07354"
       height="12.80791"
       id="rect3348" />
    <rect
       x="121.66698"
       y="17.233942"
       width="328.4335"
       height="111.52599"
       id="rect867-3" />
    <rect
       x="121.66698"
       y="17.233942"
       width="328.4335"
       height="111.52599"
       id="rect3274" />
    <rect
       x="351.11633"
       y="337.88034"
       width="200.61339"
       height="22.463528"
       id="rect24548-6" />
    <rect
       x="351.11633"
       y="337.88034"
       width="200.61339"
       height="22.463528"
       id="rect3277" />
    <rect
       x="121.66698"
       y="17.233942"
       width="328.4335"
       height="111.52599"
       id="rect3751" />
    <rect
       x="121.66698"
       y="17.233942"
       width="328.4335"
       height="111.52599"
       id="rect3783" />
    <rect
       x="121.66698"
       y="17.233942"
       width="328.4335"
       height="111.52599"
       id="rect3789" />
    <clipPath
       clipPathUnits="userSpaceOnUse"
       id="clipPath919-3-5">
      <rect
         style="fill:none;fill-opacity:1;stroke:#ffff00;stroke-width:0.922758"
         id="rect921-6-3"
         width="111.79334"
         height="112.0893"
         x="98.290276"
         y="612.21326"
         ry="6.1026506"
         transform="matrix(0,-1,-1,0,0,0)" />
    </clipPath>
    <rect
       x="121.66698"
       y="17.233942"
       width="328.4335"
       height="111.52599"
       id="rect867-3-3" />
    <rect
       x="121.66698"
       y="17.233942"
       width="328.4335"
       height="111.52599"
       id="rect1559" />
  </defs>
  <sodipodi:namedview
     id="base"
     pagecolor="#ffffff"
     bordercolor="#666666"
     borderopacity="1.0"
     inkscape:pageopacity="0.0"
     inkscape:pageshadow="2"
     inkscape:zoom="0.5"
     inkscape:cx="1016.4538"
     inkscape:cy="515.99456"
     inkscape:document-units="px"
     inkscape:current-layer="layer1"
     inkscape:document-rotation="0"
     showgrid="false"
     units="px"
     inkscape:window-width="1920"
     inkscape:window-height="1027"
     inkscape:window-x="0"
     inkscape:window-y="25"
     inkscape:window-maximized="1"
     showguides="true"
     inkscape:guide-bbox="true"
     inkscape:snap-object-midpoints="false"
     inkscape:snap-bbox="true"
     inkscape:snap-bbox-edge-midpoints="false"
     inkscape:bbox-paths="false"
     inkscape:bbox-nodes="false"
     inkscape:snap-bbox-midpoints="true" />
  <metadata
     id="metadata5">
    <rdf:RDF>
      <cc:Work
         rdf:about="">
        <dc:format>image/svg+xml</dc:format>
        <dc:type
           rdf:resource="http://purl.org/dc/dcmitype/StillImage" />
        <dc:title />
      </cc:Work>
    </rdf:RDF>
  </metadata>
  <g
     inkscape:groupmode="layer"
     id="layer2"
     inkscape:label="Background"
     style="display:inline"
     sodipodi:insensitive="true">
    <rect
       style="fill:#15616d;fill-opacity:1;stroke:none;stroke-width:1;stroke-linecap:round;stroke-linejoin:round"
       id="rect3005"
       width="508"
       height="285.75"
       x="7.1054274e-15"
       y="-1.4210855e-14" />
  </g>
  <g
     inkscape:label="Layer 1"
     inkscape:groupmode="layer"
     id="layer1">
    <g
       id="g15724"
       transform="translate(-24.852708,8.0551357)">
      <text
         xml:space="preserve"
         id="text3043"
         style="font-style:normal;font-weight:normal;font-size:31.75px;line-height:1.25;font-family:sans-serif;white-space:pre;shape-inside:url(#rect3045);fill:#ffecd1;fill-opacity:1;stroke:none;"
         x="159.41365"
         y="0"
         transform="translate(-62.327224,100.51258)"><tspan
           x="273.30035"
           y="46.011996"><tspan
             style="font-style:normal;font-variant:normal;font-weight:normal;font-stretch:normal;font-size:31.75px;font-family:ANTON;-inkscape-font-specification:ANTON;text-align:center;text-anchor:middle;fill:#ffecd1">Thank you!</tspan></tspan></text>
    </g>
    <g
       id="g4577"
       transform="translate(-1.0392904,5.1140443)">
      <a
         id="a24352"
         xlink:href="https://egu21.eu/"
         transform="matrix(0.92602861,0,0,0.92602861,362.81663,-324.17554)"
         style="fill:#ffecd1">
        <g
           id="g1108"
           transform="matrix(0.3445849,0,0,0.3445849,14.445531,367.49959)"
           style="fill:#ffecd1">
          <path
             class="st0"
             d="m 140.1,38.1 h 7.2 v 9.3 c -1,0.3 -2.1,0.6 -3.2,0.8 -1,0.2 -2.1,0.3 -3.1,0.3 -2.3,0.1 -4.6,-0.7 -6.3,-2.4 -1.5,-2 -2.3,-4.4 -2.1,-6.9 0,-2.9 0.8,-5.3 2.5,-6.9 1.9,-1.7 4.4,-2.6 6.9,-2.5 1.9,0 3.7,0.3 5.4,1.1 l -1.3,3 c -1.3,-0.7 -2.7,-1 -4.2,-1 -1.5,-0.1 -3,0.5 -4,1.6 -1,1.3 -1.5,2.9 -1.4,4.5 -0.1,1.6 0.3,3.2 1.2,4.5 0.9,1.1 2.2,1.6 3.6,1.5 0.8,0 1.6,-0.1 2.4,-0.3 v -3.8 h -3.5 z"
             id="path1028"
             style="fill:#ffecd1" />
          <path
             class="st0"
             d="m 157.1,48.5 c -2,0.1 -3.9,-0.6 -5.3,-1.9 -1.4,-1.4 -2.1,-3.3 -1.9,-5.3 -0.1,-1.9 0.5,-3.9 1.7,-5.4 1.2,-1.3 3,-2 4.8,-1.9 1.7,-0.1 3.4,0.5 4.6,1.6 1.2,1.3 1.7,3 1.6,4.7 v 1.9 h -8.9 c -0.2,1.7 1.1,3.2 2.8,3.4 0.2,0 0.4,0 0.6,0 0.8,0 1.6,-0.1 2.4,-0.3 0.8,-0.2 1.6,-0.4 2.3,-0.8 v 2.9 c -0.7,0.3 -1.4,0.6 -2.1,0.8 -0.8,0.3 -1.7,0.4 -2.6,0.3 z m -0.5,-11.6 c -0.7,0 -1.4,0.3 -1.9,0.8 -0.5,0.6 -0.7,1.3 -0.8,2.1 h 5.3 c 0,-0.8 -0.3,-1.5 -0.8,-2.1 -0.3,-0.6 -0.8,-0.8 -1.8,-0.8 z"
             id="path1030"
             style="fill:#ffecd1" />
          <path
             class="st0"
             d="m 178.5,48.3 h -3.8 v -8 c 0,-0.8 -0.1,-1.5 -0.5,-2.2 -0.4,-0.6 -1,-0.9 -1.7,-0.8 -0.9,-0.1 -1.8,0.3 -2.3,1 -0.5,1.1 -0.8,2.4 -0.7,3.6 v 6.5 h -3.8 V 34.5 h 2.9 l 0.5,1.8 h 0.2 c 0.4,-0.7 1,-1.2 1.7,-1.5 0.8,-0.3 1.6,-0.5 2.5,-0.5 1.4,-0.1 2.7,0.4 3.7,1.3 0.9,1.1 1.4,2.4 1.3,3.8 z"
             id="path1032"
             style="fill:#ffecd1" />
          <path
             class="st0"
             d="m 188.1,48.5 c -2,0.1 -3.9,-0.6 -5.3,-1.9 -1.4,-1.4 -2.1,-3.3 -1.9,-5.3 -0.1,-1.9 0.5,-3.9 1.7,-5.4 1.2,-1.3 3,-2 4.8,-1.9 1.7,-0.1 3.4,0.5 4.6,1.6 1.2,1.3 1.7,3 1.6,4.7 v 1.9 h -8.8 c -0.2,1.7 1.1,3.2 2.8,3.4 0.2,0 0.4,0 0.6,0 0.8,0 1.6,-0.1 2.4,-0.3 0.8,-0.2 1.6,-0.4 2.3,-0.8 v 2.9 c -0.7,0.3 -1.4,0.6 -2.1,0.8 -0.9,0.3 -1.8,0.4 -2.7,0.3 z m -0.5,-11.6 c -0.7,0 -1.4,0.3 -1.9,0.8 -0.5,0.6 -0.7,1.3 -0.8,2.1 h 5.3 c 0,-0.8 -0.3,-1.5 -0.8,-2.1 -0.3,-0.6 -0.9,-0.8 -1.8,-0.8 z"
             id="path1034"
             style="fill:#ffecd1" />
          <path
             class="st0"
             d="m 204.3,34.1 c 0.4,0 0.9,0 1.3,0.1 l -0.3,3.6 c -0.4,-0.1 -0.7,-0.1 -1.1,-0.1 -1,-0.1 -2,0.3 -2.8,0.9 -0.7,0.6 -1.1,1.6 -1,2.5 v 7 h -3.8 V 34.5 h 2.8 l 0.5,2.3 h 0.2 c 0.4,-0.8 1,-1.4 1.7,-1.9 0.8,-0.4 1.6,-0.7 2.5,-0.8 z"
             id="path1036"
             style="fill:#ffecd1" />
          <path
             class="st0"
             d="m 216.2,48.3 -0.8,-1.9 h -0.1 c -0.5,0.7 -1.1,1.3 -1.9,1.6 -0.8,0.3 -1.7,0.4 -2.6,0.4 -1.1,0.1 -2.3,-0.3 -3.1,-1.1 -0.8,-0.9 -1.2,-2 -1.1,-3.2 -0.1,-1.3 0.5,-2.5 1.5,-3.2 1.4,-0.8 3.1,-1.2 4.7,-1.1 l 2.4,-0.1 v -0.6 c 0.1,-1 -0.6,-2 -1.6,-2.1 -0.2,0 -0.3,0 -0.5,0 -1.4,0 -2.7,0.4 -3.9,1 l -1.3,-2.5 c 1.6,-0.9 3.5,-1.3 5.3,-1.3 1.5,-0.1 3,0.3 4.3,1.2 1,0.9 1.6,2.3 1.4,3.7 v 9.2 z m -1.1,-6.4 -1.4,0.1 c -0.9,0 -1.7,0.2 -2.5,0.6 -0.5,0.4 -0.8,1 -0.8,1.6 0,1 0.6,1.6 1.8,1.6 0.7,0 1.5,-0.3 2,-0.8 0.5,-0.5 0.8,-1.2 0.8,-1.9 z"
             id="path1038"
             style="fill:#ffecd1" />
          <path
             class="st0"
             d="m 226.1,48.3 h -3.8 V 29.1 h 3.8 z"
             id="path1040"
             style="fill:#ffecd1" />
          <path
             class="st0"
             d="M 144.3,70.5 143,66.2 h -6.6 l -1.3,4.3 H 131 l 6.4,-18.2 h 4.7 l 6.4,18.2 z M 142,62.9 c -1.2,-4 -1.9,-6.1 -2,-6.6 -0.2,-0.4 -0.3,-0.8 -0.3,-1.2 -0.3,1 -1,3.7 -2.3,7.8 z"
             id="path1042"
             style="fill:#ffecd1" />
          <path
             class="st0"
             d="m 160.4,66.3 c 0.1,1.2 -0.5,2.4 -1.4,3.2 -1.3,0.8 -2.9,1.2 -4.5,1.1 -0.8,0 -1.7,-0.1 -2.5,-0.2 -0.7,-0.1 -1.3,-0.3 -1.9,-0.6 v -3 c 0.8,0.4 1.6,0.6 2.4,0.8 0.7,0.2 1.5,0.3 2.3,0.3 1.4,0 2,-0.4 2,-1.2 0,-0.3 -0.1,-0.5 -0.3,-0.7 -0.3,-0.2 -0.6,-0.4 -0.9,-0.6 -0.6,-0.3 -1.2,-0.6 -1.8,-0.8 -0.8,-0.3 -1.6,-0.7 -2.3,-1.2 -0.5,-0.3 -0.8,-0.8 -1.1,-1.3 -0.3,-0.6 -0.4,-1.2 -0.3,-1.8 0,-1.1 0.5,-2.2 1.4,-2.8 1.2,-0.8 2.7,-1.1 4.1,-1 1.7,0 3.4,0.4 4.9,1.1 l -1.1,2.7 c -0.6,-0.2 -1.3,-0.5 -1.9,-0.8 -0.6,-0.2 -1.3,-0.3 -1.9,-0.3 -1.1,0 -1.6,0.3 -1.6,0.9 0,0.3 0.2,0.6 0.5,0.8 0.7,0.5 1.5,0.8 2.3,1.1 0.9,0.3 1.7,0.7 2.4,1.2 0.4,0.4 0.8,0.8 1.1,1.3 0,0.6 0.1,1.1 0.1,1.8 z"
             id="path1044"
             style="fill:#ffecd1" />
          <path
             class="st0"
             d="m 172.9,66.3 c 0.1,1.2 -0.5,2.4 -1.4,3.2 -1.3,0.8 -2.9,1.2 -4.5,1.1 -0.8,0 -1.7,-0.1 -2.5,-0.2 -0.7,-0.1 -1.3,-0.3 -1.9,-0.6 v -3 c 0.8,0.4 1.6,0.6 2.4,0.8 0.7,0.2 1.5,0.3 2.3,0.3 1.4,0 2,-0.4 2,-1.2 0,-0.3 -0.1,-0.5 -0.3,-0.7 -0.3,-0.2 -0.6,-0.4 -0.9,-0.6 -0.6,-0.3 -1.2,-0.6 -1.8,-0.8 -0.8,-0.3 -1.6,-0.7 -2.3,-1.2 -0.5,-0.3 -0.8,-0.8 -1.1,-1.3 -0.3,-0.6 -0.4,-1.2 -0.3,-1.8 0,-1.1 0.5,-2.2 1.4,-2.8 1.2,-0.8 2.7,-1.1 4.1,-1 1.7,0 3.4,0.4 4.9,1.1 l -1.1,2.7 c -0.6,-0.2 -1.3,-0.5 -1.9,-0.8 -0.6,-0.2 -1.3,-0.3 -1.9,-0.3 -1.1,0 -1.6,0.3 -1.6,0.9 0,0.3 0.2,0.6 0.5,0.8 0.7,0.5 1.5,0.8 2.3,1.1 0.9,0.3 1.7,0.7 2.4,1.2 0.5,0.3 0.8,0.8 1.1,1.3 0,0.6 0.1,1.1 0.1,1.8 z"
             id="path1046"
             style="fill:#ffecd1" />
          <path
             class="st0"
             d="m 181.8,70.7 c -2,0.1 -3.9,-0.6 -5.3,-1.9 -1.4,-1.4 -2.1,-3.3 -1.9,-5.3 -0.1,-1.9 0.5,-3.9 1.7,-5.4 1.2,-1.3 3,-2 4.8,-1.9 1.7,-0.1 3.4,0.5 4.6,1.6 1.2,1.3 1.7,3 1.6,4.7 v 1.8 h -8.9 c -0.2,1.7 1.1,3.2 2.8,3.4 0.2,0 0.4,0 0.6,0 0.8,0 1.6,-0.1 2.4,-0.3 0.8,-0.2 1.6,-0.4 2.3,-0.8 v 2.9 c -0.7,0.3 -1.4,0.6 -2.1,0.8 -0.8,0.3 -1.7,0.4 -2.6,0.4 z M 181.3,59 c -0.7,0 -1.4,0.3 -1.9,0.8 -0.5,0.6 -0.7,1.3 -0.8,2.1 h 5.3 c 0,-0.8 -0.3,-1.5 -0.8,-2.1 C 182.6,59.3 182,59 181.3,59 Z"
             id="path1048"
             style="fill:#ffecd1" />
          <path
             class="st0"
             d="m 202.6,70.5 h -3.8 v -8 c 0,-0.8 -0.1,-1.5 -0.5,-2.2 -0.3,-0.5 -0.9,-0.8 -1.5,-0.8 -0.8,-0.1 -1.6,0.3 -2.1,1 -0.5,1.1 -0.8,2.4 -0.7,3.6 v 6.5 h -3.8 V 56.7 h 2.9 l 0.5,1.8 h 0.2 c 0.4,-0.6 0.9,-1.1 1.6,-1.4 0.8,-0.3 1.6,-0.5 2.4,-0.5 2,0 3.6,0.7 4.2,2 h 0.3 c 0.3,-0.7 0.9,-1.2 1.6,-1.4 0.8,-0.3 1.6,-0.5 2.5,-0.5 1.3,-0.1 2.6,0.4 3.6,1.2 0.8,0.8 1.2,2 1.2,3.9 v 9 h -3.8 v -8 c 0,-0.8 -0.1,-1.5 -0.5,-2.2 -0.3,-0.5 -0.9,-0.8 -1.5,-0.8 -0.8,-0.1 -1.6,0.3 -2,1 -0.5,1 -0.7,2 -0.7,3.1 z"
             id="path1050"
             style="fill:#ffecd1" />
          <path
             class="st0"
             d="m 222.3,56.4 c 1.5,0 3,0.7 3.9,1.9 1,1.6 1.5,3.4 1.4,5.3 0.1,1.9 -0.4,3.7 -1.4,5.3 -0.9,1.3 -2.4,2 -3.9,1.9 -1.5,0 -3,-0.6 -3.9,-1.8 h -0.3 l -0.6,1.5 h -2.9 V 51.2 h 3.8 v 4.5 c 0,0.6 -0.1,1.4 -0.2,2.7 h 0.2 c 0.9,-1.3 2.3,-2.1 3.9,-2 z m -1.2,3 c -0.8,-0.1 -1.5,0.2 -2,0.8 -0.5,0.8 -0.7,1.8 -0.7,2.8 v 0.4 c -0.1,1.1 0.2,2.2 0.7,3.1 0.4,0.7 1.2,1 2,0.9 0.8,0 1.5,-0.4 1.9,-1 0.5,-0.9 0.7,-2 0.7,-3 0,-1 -0.2,-2.1 -0.7,-3 -0.4,-0.6 -1.1,-1 -1.9,-1 z"
             id="path1052"
             style="fill:#ffecd1" />
          <path
             class="st0"
             d="m 234.1,70.5 h -3.8 V 51.2 h 3.8 z"
             id="path1054"
             style="fill:#ffecd1" />
          <path
             class="st0"
             d="m 235.9,56.7 h 4.2 l 2.5,7.8 c 0.3,0.8 0.4,1.6 0.4,2.4 h 0.1 c 0.1,-0.8 0.3,-1.6 0.5,-2.4 l 2.5,-7.8 h 4.1 l -5.8,15.6 c -0.4,1.3 -1.2,2.4 -2.3,3.2 -1,0.7 -2.3,1.1 -3.6,1.1 -0.6,0 -1.3,-0.1 -1.9,-0.2 v -3 c 0.5,0.1 0.9,0.2 1.4,0.2 0.6,0 1.2,-0.2 1.7,-0.6 0.5,-0.5 1,-1.2 1.2,-1.9 l 0.3,-0.7 z"
             id="path1056"
             style="fill:#ffecd1" />
          <path
             class="st0"
             d="M 67.2,76.4 C 52.5,88.5 30.7,86.5 18.6,71.8 c -5.1,-6.2 -7.9,-14 -7.9,-22.1 0,-19 15.4,-34.5 34.4,-34.5 8,0 15.8,2.8 22,7.9 2.4,-0.6 4.8,-0.9 7.2,-0.9 2.5,0 5.1,0.3 7.5,1 C 78.3,18.5 74,14.4 69,11.3 L 72,4.5 62.4,0 59.4,6.7 C 54.8,5.2 50.1,4.5 45.3,4.5 20.3,4.5 0,24.7 0,49.7 0,65.4 8.1,79.9 21.4,88.2 l -3,6.7 9.6,4.6 3,-6.7 c 4.6,1.5 9.3,2.2 14.1,2.2 14.5,0 28.1,-7 36.5,-18.7 -2.4,0.7 -5,1 -7.5,1 -2.3,0 -4.6,-0.3 -6.9,-0.9 z"
             id="path1058"
             style="fill:#ffecd1" />
          <path
             class="st0"
             d="m 48.9,37.9 c 1.3,-3 3.2,-5.7 5.6,-8 H 26.2 v 39.5 h 28.3 c -2.3,-2.3 -4.2,-5 -5.6,-8 H 34.2 v -7.6 h 12.5 c -0.2,-1.4 -0.3,-2.7 -0.3,-4.1 0,-1.4 0.1,-2.7 0.3,-4.1 H 34.2 V 38 c 0,-0.1 9.7,-0.1 14.7,-0.1 z"
             id="path1060"
             style="fill:#ffecd1" />
          <path
             class="st0"
             d="m 71.3,53.4 h 9.6 v 7.3 c -6.2,3.5 -14.1,1.4 -17.6,-4.8 -3.5,-6.2 -1.4,-14.1 4.8,-17.6 1.9,-1.1 4.2,-1.7 6.4,-1.7 2.9,0 5.7,0.9 8,2.7 l 5,-6.4 c -9.1,-7.2 -22.2,-5.6 -29.4,3.5 -2.9,3.7 -4.5,8.2 -4.5,12.9 -0.1,11.6 9.2,21 20.8,21.1 4.8,0 9.4,-1.5 13.1,-4.5 L 89,64.7 V 45.4 H 71.3 Z"
             id="path1062"
             style="fill:#ffecd1" />
          <path
             class="st0"
             d="m 117.2,29.8 v 25.8 c 0,3.8 -3.1,6.9 -6.9,6.9 -3.8,0 -6.9,-3.1 -6.9,-6.9 V 29.8 h -8 v 25.8 c 0,8.2 6.7,14.9 14.9,14.9 8.2,0 14.9,-6.7 14.9,-14.9 V 29.8 Z"
             id="path1064"
             style="fill:#ffecd1" />
          <g
             id="g1074"
             style="fill:#ffecd1">
            <path
               class="st0"
               d="M 284.7,70.9 H 258.4 V 67 L 269,56.4 c 3.2,-3.2 5.3,-5.6 6.3,-6.9 1,-1.4 1.8,-2.7 2.3,-4 0.5,-1.3 0.8,-2.7 0.8,-4.2 0,-2.1 -0.6,-3.8 -1.9,-5.1 -1.3,-1.2 -3.1,-1.9 -5.4,-1.9 -1.7,0 -3.2,0.3 -4.7,0.8 -1.5,0.5 -3.1,1.5 -5,3 L 259,35 c 3.7,-3.1 7.7,-4.6 12,-4.6 3.8,0 6.7,1 8.8,2.9 2.1,1.9 3.2,4.5 3.2,7.8 0,2.5 -0.7,5 -2.1,7.5 -1.4,2.5 -4.1,5.6 -8,9.4 l -8.8,8.6 v 0.2 h 20.6 z"
               id="path1066"
               style="fill:#ffecd1" />
            <path
               class="st0"
               d="m 317,50.8 c 0,6.9 -1.1,12.1 -3.3,15.5 -2.2,3.4 -5.5,5.1 -10,5.1 -4.3,0 -7.6,-1.7 -9.8,-5.2 -2.2,-3.5 -3.4,-8.6 -3.4,-15.4 0,-7 1.1,-12.1 3.3,-15.5 2.2,-3.4 5.5,-5.1 9.9,-5.1 4.3,0 7.6,1.8 9.9,5.3 2.2,3.6 3.4,8.7 3.4,15.3 z m -21.9,0 c 0,5.8 0.7,10 2.1,12.7 1.4,2.7 3.5,4 6.5,4 3,0 5.2,-1.3 6.6,-4 1.4,-2.7 2,-6.9 2,-12.6 0,-5.7 -0.7,-9.9 -2,-12.6 -1.4,-2.7 -3.6,-4 -6.6,-4 -3,0 -5.2,1.3 -6.5,4 -1.4,2.5 -2.1,6.7 -2.1,12.5 z"
               id="path1068"
               style="fill:#ffecd1" />
            <path
               class="st0"
               d="M 348.8,70.9 H 322.5 V 67 L 333,56.4 c 3.2,-3.2 5.3,-5.6 6.3,-6.9 1,-1.4 1.8,-2.7 2.3,-4 0.5,-1.3 0.8,-2.7 0.8,-4.2 0,-2.1 -0.6,-3.8 -1.9,-5.1 -1.3,-1.2 -3.1,-1.9 -5.4,-1.9 -1.7,0 -3.2,0.3 -4.7,0.8 -1.5,0.5 -3.1,1.5 -5,3 L 323,35 c 3.7,-3.1 7.7,-4.6 12,-4.6 3.8,0 6.7,1 8.8,2.9 2.1,1.9 3.2,4.5 3.2,7.8 0,2.5 -0.7,5 -2.1,7.5 -1.4,2.5 -4.1,5.6 -8,9.4 l -8.8,8.6 v 0.2 h 20.6 v 4.1 z"
               id="path1070"
               style="fill:#ffecd1" />
            <path
               class="st0"
               d="m 371.3,70.9 h -4.4 V 42.4 c 0,-2.4 0.1,-4.6 0.2,-6.7 -0.4,0.4 -0.8,0.8 -1.3,1.2 -0.5,0.4 -2.6,2.2 -6.5,5.3 l -2.4,-3.1 10.6,-8.2 h 3.8 z"
               id="path1072"
               style="fill:#ffecd1" />
          </g>
        </g>
      </a>
      <g
         id="g3086"
         transform="matrix(0.98739969,0,0,0.98739969,-234.86764,51.97833)"
         style="fill:#ffecd1">
        <g
           id="g3059"
           transform="matrix(0.37681834,0,0,0.37681834,293.89157,-30.957818)"
           style="fill:#ffecd1">
          <path
             d="m 37.443,-3.5 c 8.988,0 16.57,3.085 22.742,9.257 6.208,6.21 9.315,13.791 9.315,22.743 0,8.991 -3.049,16.476 -9.145,22.456 C 53.879,57.319 46.242,60.5 37.443,60.5 28.794,60.5 21.29,57.356 14.929,51.07 8.644,44.784 5.5,37.262 5.5,28.5 5.5,19.739 8.644,12.158 14.929,5.758 21.101,-0.415 28.604,-3.5 37.443,-3.5 Z m 0.114,5.772 c -7.276,0 -13.428,2.553 -18.457,7.657 -5.22,5.334 -7.829,11.525 -7.829,18.572 0,7.086 2.59,13.22 7.77,18.398 5.181,5.182 11.352,7.771 18.514,7.771 7.123,0 13.334,-2.607 18.629,-7.828 5.029,-4.838 7.543,-10.952 7.543,-18.343 0,-7.276 -2.553,-13.465 -7.656,-18.571 C 50.967,4.824 44.795,2.272 37.557,2.272 Z m 8.572,18.285 V 33.642 H 42.473 V 49.184 H 32.529 V 33.643 H 28.873 V 20.557 c 0,-0.572 0.2,-1.057 0.599,-1.457 0.401,-0.399 0.887,-0.6 1.457,-0.6 h 13.144 c 0.533,0 1.01,0.2 1.428,0.6 0.417,0.4 0.628,0.886 0.628,1.457 z M 33.042,12.329 c 0,-3.008 1.485,-4.514 4.458,-4.514 2.973,0 4.457,1.504 4.457,4.514 0,2.971 -1.486,4.457 -4.457,4.457 -2.971,0 -4.458,-1.486 -4.458,-4.457 z"
             id="path3057"
             style="fill:#ffecd1" />
        </g>
        <path
           d="m 282.6953,-32.276497 c 3.3729,0 6.24463,1.177557 8.61293,3.531541 1.13347,1.133847 1.99526,2.429725 2.58385,3.886505 0.58821,1.457156 0.88326,3.003619 0.88326,4.640141 0,1.650841 -0.29128,3.19768 -0.87196,4.639764 -0.58143,1.442461 -1.43945,2.71686 -2.57292,3.822068 -1.1768,1.162485 -2.51187,2.0529066 -4.0052,2.6701351 -1.49258,0.6172284 -3.03602,0.9258427 -4.62921,0.9258427 -1.59319,0 -3.11855,-0.3044693 -4.57571,-0.9152918 -1.45678,-0.6096921 -2.7632,-1.492577 -3.91891,-2.647902 -1.1557,-1.155326 -2.03482,-2.458363 -2.63773,-3.90836 -0.6029,-1.449997 -0.90436,-2.978372 -0.90436,-4.586256 0,-1.593565 0.30485,-3.125708 0.91492,-4.597184 0.61006,-1.471476 1.49672,-2.788456 2.6592,-3.951317 2.29671,-2.339288 5.1172,-3.509686 8.46184,-3.509686 z m 0.0437,2.174995 c -2.75605,0 -5.07462,0.962017 -6.95532,2.885298 -0.94769,0.962018 -1.67608,2.041979 -2.18554,3.240638 -0.51021,1.198659 -0.76457,2.451203 -0.76457,3.757633 0,1.29211 0.25436,2.537494 0.76457,3.7354 0.50983,1.199412 1.23785,2.268823 2.18554,3.208985 0.94732,0.940538 2.01636,1.657624 3.20861,2.153517 1.19112,0.495139 2.44028,0.742708 3.74671,0.742708 1.29173,0 2.54352,-0.250584 3.75801,-0.753259 1.21297,-0.503053 2.3065,-1.227298 3.28321,-2.174619 1.88033,-1.837366 2.82011,-4.141234 2.82011,-6.912356 0,-1.335067 -0.24418,-2.598162 -0.73216,-3.789662 -0.48722,-1.191499 -1.19828,-2.253373 -2.13053,-3.187129 -1.9391,-1.937977 -4.27123,-2.907154 -6.99864,-2.907154 z m -0.15111,7.881156 -1.61542,0.839928 c -0.17258,-0.358354 -0.38398,-0.610069 -0.63494,-0.753637 -0.25133,-0.143191 -0.48459,-0.215163 -0.70013,-0.215163 -1.07619,0 -1.61504,0.710303 -1.61504,2.131661 0,0.645867 0.13641,1.162108 0.40885,1.549854 0.27282,0.387746 0.67488,0.581808 1.20619,0.581808 0.70352,0 1.19866,-0.344789 1.48618,-1.033613 l 1.48541,0.753637 c -0.31577,0.588967 -0.75363,1.0517 -1.31358,1.388952 -0.5592,0.337629 -1.17681,0.506067 -1.85169,0.506067 -1.07657,0 -1.94551,-0.329716 -2.6057,-0.990655 -0.66018,-0.660186 -0.99028,-1.578869 -0.99028,-2.755673 0,-1.148542 0.33386,-2.059689 1.00121,-2.734571 0.66734,-0.674504 1.51066,-1.012134 2.53033,-1.012134 1.49334,-7.53e-4 2.56237,0.580677 3.20861,1.743539 z m 6.95494,0 -1.59357,0.839928 c -0.1722,-0.358354 -0.38435,-0.610069 -0.63531,-0.753637 -0.25172,-0.143191 -0.4925,-0.215163 -0.72123,-0.215163 -1.07657,0 -1.61542,0.710303 -1.61542,2.131661 0,0.645867 0.13678,1.162108 0.40922,1.549854 0.27244,0.387746 0.67413,0.581808 1.2062,0.581808 0.70276,0 1.19828,-0.344789 1.48504,-1.033613 l 1.50727,0.753637 c -0.32971,0.588967 -0.77511,1.0517 -1.33431,1.388952 -0.55995,0.337629 -1.17002,0.506067 -1.83021,0.506067 -1.09126,0 -1.96285,-0.329716 -2.61549,-0.990655 -0.65416,-0.660186 -0.98049,-1.578869 -0.98049,-2.755673 0,-1.148542 0.33349,-2.059689 1.00159,-2.734571 0.66697,-0.674504 1.51029,-1.012134 2.52958,-1.012134 1.49295,-7.53e-4 2.55596,0.580677 3.18713,1.743539 z"
           id="path3065"
           style="fill:#ffecd1;stroke-width:0.376818" />
      </g>
    </g>
    <text
       xml:space="preserve"
       id="text865"
       style="font-style:normal;font-weight:normal;font-size:5.63405px;line-height:1.25;font-family:sans-serif;white-space:pre;shape-inside:url(#rect867-3-3);fill:#ffecd1;fill-opacity:1;stroke:none;"
       x="160.47597"
       y="0"
       transform="matrix(1.7532276,0,0,1.7532276,-123.30518,-4.317799)"><tspan
         x="121.66602"
         y="22.219189"><tspan
           style="font-size:5.63405px">Creative Commons
</tspan></tspan><tspan
         x="121.66602"
         y="29.261751"><tspan
           style="font-size:5.63405px">BY 4.0 International</tspan></tspan></text>
  </g>
  <style
     type="text/css"
     id="style1026">
	.st0{fill:#1373BA;}
</style>
</svg>
