<svg height="512" viewBox="0 0 58 59" width="512" xmlns="http://www.w3.org/2000/svg"><g id="Page-1" fill="none" fill-rule="evenodd"><g id="037---RAM" fill-rule="nonzero"><path id="Shape" d="m37.9 40.91-2.74 2.73c-.1792913.1823244-.4242901.285012-.68.285012s-.5007087-.1026876-.68-.285012l-2.74-2.73 3.42-8.41z" fill="#f0c419"/><path id="Shape" d="m41.32 37.49-3.42 3.42-3.42-3.42 3.42-7.49z" fill="#f3d55b"/><path id="Shape" d="m44.74 34.07-3.42 3.42-3.42-3.42 3.017-7.153z" fill="#f0c419"/><path id="Shape" d="m48.16 30.65-3.42 3.42-3.42-3.42 2.93-6.499z" fill="#f3d55b"/><path id="Shape" d="m51.58 27.23-3.42 3.42-3.42-3.42 2.552-7.105z" fill="#f0c419"/><path id="Shape" d="m55 23.81-3.42 3.42-3.42-3.42 3.42-6.352z" fill="#f3d55b"/><path id="Shape" d="m57.73 21.07-2.73 2.74-3.42-3.42 1.7163-5.1238 4.4337 4.4438c.1823244.1792913.285012.4242901.285012.68s-.1026876.5007087-.285012.68z" fill="#f0c419"/><path id="Shape" d="m22.85 55.95-2.73 2.74c-.1812756.1824209-.4278265.2850007-.685.2850007s-.5037244-.1025798-.685-.2850007l-2.73-2.73 4.5633-8.835z" fill="#f3d55b"/><path id="Shape" d="m29.01 49.8-2.74 2.73-8.145-2.655 8.145-4.175 2.74 2.73c.3700002.3817213.3700002.9882787 0 1.37z" fill="#f3d55b"/><path id="Shape" d="m55.68 16.29-.68.68-3.42 3.42-3.42 3.42-6.84 6.84-3.42 3.42-3.42 3.42-3.42 3.42-4.79 4.79-3.41 3.42-6.84 6.84-.69.68c-.3817213.3700002-.9882787.3700002-1.37 0l-7.61-7.61c-.31599741-.3305905-.36553054-.8341773-.12-1.22.63754758-1.1365527.44138459-2.5584419-.48008675-3.4799133-.92147134-.9214713-2.34336059-1.1176343-3.47991325-.4800867-.38582271.2455305-.88940955.1959974-1.22-.12l-.77-.77c-.37000024-.3817213-.37000024-.9882787 0-1.37l40.36-40.35c.1792913-.18232436.4242901-.28501196.68-.28501196s.5007087.1026876.68.28501196l.78.77c.3064016.33493309.3552725.8317875.12 1.22-.6447652 1.13581416-.4507266 2.56249131.4739649 3.48484781.9246916.92235649 2.3518548 1.11278719 3.4860351.46515219.3858683-.23730365.8833472-.18385551 1.21.13l7.61 7.61c.1824209.1812756.2850007.4278265.2850007.685s-.1025798.5037244-.2850007.685z" fill="#4c8056"/><g fill="#f0c419"><path id="Rectangle-path" d="m20.437 50.124h4.837v4.823h-4.837z" transform="matrix(.707 -.707 .707 .707 -30.454 31.548)"/><path id="Shape" d="m16.02 55.96-.01-.01"/><path id="Shape" d="m19.44 52.54-.01-.01"/><path id="Shape" d="m22.86 49.12-.01-.01"/></g><rect id="Rectangle-path" fill="#393f4a" height="11.607" rx="1" transform="matrix(.707 -.707 .707 .707 -25.262 22.879)" width="8.705" x="10.634" y="36.13"/><rect id="Rectangle-path" fill="#393f4a" height="11.607" rx="1" transform="matrix(.707 -.707 .707 .707 -16.37 26.562)" width="8.705" x="19.526" y="27.239"/><rect id="Rectangle-path" fill="#393f4a" height="11.607" rx="1" transform="matrix(.707 -.707 .707 .707 -7.479 30.245)" width="8.705" x="28.417" y="18.347"/><rect id="Rectangle-path" fill="#393f4a" height="11.607" rx="1" transform="matrix(.707 -.707 .707 .707 1.412 33.928)" width="8.705" x="37.308" y="9.456"/></g></g></svg>